<?xml version="1.0" standalone="no"?>
<!DOCTYPE svg PUBLIC "-//W3C//DTD SVG 1.1//EN" "http://www.w3.org/Graphics/SVG/1.1/DTD/svg11.dtd" >
<svg>
<metadata>
Created by FontForge 20120731 at Mon Feb  1 21:38:03 2016
 By ,,,
Copyright 1990-1993 Bitstream Inc.  All rights reserved.
</metadata>
<defs>
<font id="Swiss721BT-Light" horiz-adv-x="1024" >
  <font-face 
    font-family="Swis721 Lt BT"
    font-weight="400"
    font-stretch="normal"
    units-per-em="2048"
    panose-1="2 11 4 3 2 2 2 2 2 4"
    ascent="1638"
    descent="-410"
    x-height="1063"
    cap-height="1473"
    bbox="-342 -483 2419 1972"
    underline-thickness="92"
    underline-position="-167"
    unicode-range="U+0020-F002"
  />
<missing-glyph horiz-adv-x="1229" 
d="M102 -362v1806h1024v-1806h-1024zM217 -248h795v1577h-795v-1577z" />
    <glyph glyph-name=".notdef" horiz-adv-x="1229" 
d="M102 -362v1806h1024v-1806h-1024zM217 -248h795v1577h-795v-1577z" />
    <glyph glyph-name=".null" horiz-adv-x="0" 
 />
    <glyph glyph-name="nonmarkingreturn" horiz-adv-x="545" 
 />
    <glyph glyph-name="space" unicode=" " horiz-adv-x="545" 
 />
    <glyph glyph-name="exclam" unicode="!" horiz-adv-x="639" 
d="M281 360l-29 578v535h135v-535l-27 -578h-79zM252 0v182h135v-182h-135z" />
    <glyph glyph-name="quotedbl" unicode="&#x22;" horiz-adv-x="551" 
d="M451 1434v-553h-86v553h86zM186 1434v-553h-86v553h86z" />
    <glyph glyph-name="numbersign" unicode="#" horiz-adv-x="1575" 
d="M979 866h-270l-99 -282h269zM915 1454l-174 -498h271l176 498h110l-174 -498h322l-31 -90h-323l-101 -282h348l-30 -90h-351l-174 -494h-112l176 494h-270l-179 -494h-110l174 494h-334l31 90h336l100 282h-360l28 90h365l176 498h110z" />
    <glyph glyph-name="dollar" unicode="$" horiz-adv-x="1090" 
d="M598 72q149 9 228 80.5t79 195.5q0 113 -59.5 179t-192.5 100l-55 14v-569zM504 799v520q-138 -8 -212.5 -76t-74.5 -188q0 -97 51.5 -152t180.5 -90zM59 420h125q4 -157 84 -244t236 -104v592l-92 26q-170 50 -244 132.5t-74 219.5q0 177 106.5 278t303.5 112v122h94
v-122q178 -7 280.5 -103.5t104.5 -261.5h-121q-6 117 -74 182t-190 69v-546l51 -12q203 -54 293 -148t90 -250q0 -180 -115 -287t-319 -116v-160h-94v160q-220 18 -332.5 132t-112.5 319v10z" />
    <glyph glyph-name="percent" unicode="%" horiz-adv-x="1659" 
d="M1024 340q0 -92 64.5 -156.5t156.5 -64.5t155.5 64t63.5 157t-63 156t-156 63t-157 -63.5t-64 -155.5zM905 340q0 143 98.5 240.5t241.5 97.5t240.5 -97.5t97.5 -240.5t-98 -241.5t-240 -98.5t-241 99t-99 241zM317 -41l920 1473h104l-919 -1473h-105zM195 1051
q0 -93 63.5 -156.5t155.5 -63.5t155.5 63.5t63.5 156.5t-63.5 157t-155.5 64q-93 0 -156 -64t-63 -157zM76 1053q0 143 97.5 240.5t240.5 97.5t241.5 -98t98.5 -240q0 -143 -99 -241.5t-241 -98.5t-240 98.5t-98 241.5z" />
    <glyph glyph-name="ampersand" unicode="&#x26;" horiz-adv-x="1352" 
d="M530 766q-142 -70 -211 -160.5t-69 -206.5q0 -143 86 -231t225 -88q125 0 219 47t166 145zM580 909q119 60 173 123.5t54 143.5q0 83 -51 130.5t-140 47.5q-88 0 -136 -46t-48 -130q0 -57 34.5 -120t113.5 -149zM1176 0l-148 176q-81 -107 -199.5 -162t-269.5 -55
q-198 0 -323 119.5t-125 306.5q0 156 87.5 273t260.5 194q-83 92 -120.5 170.5t-37.5 157.5q0 125 90 209t227 84q145 0 230.5 -80.5t85.5 -214.5q0 -108 -65.5 -191.5t-217.5 -165.5l365 -430q25 56 37 122.5t12 145.5h127q-2 -110 -24.5 -202t-67.5 -170l243 -287h-167z
" />
    <glyph glyph-name="quotesingle" unicode="'" horiz-adv-x="285" 
d="M186 1434v-553h-86v553h86z" />
    <glyph glyph-name="parenleft" unicode="(" horiz-adv-x="647" 
d="M616 1473q-151 -209 -224 -441.5t-73 -503.5q0 -272 73 -502.5t224 -441.5h-98q-161 197 -243 435t-82 509q0 272 82 510t243 435h98z" />
    <glyph glyph-name="parenright" unicode=")" horiz-adv-x="647" 
d="M31 1473h98q161 -197 243.5 -435t82.5 -510q0 -271 -82.5 -509t-243.5 -435h-98q151 210 223 440.5t72 503.5q0 276 -72 506t-223 439z" />
    <glyph glyph-name="asterisk" unicode="*" 
d="M510 1026l-180 -264l-94 67l200 250l-299 80l35 115l291 -107v306h94v-306l289 103l41 -107l-303 -84l204 -250l-96 -69z" />
    <glyph glyph-name="plus" unicode="+" horiz-adv-x="1706" 
d="M893 1221v-570h559v-82h-559v-569h-80v569h-559v82h559v570h80z" />
    <glyph glyph-name="comma" unicode="," horiz-adv-x="545" 
d="M205 -285v78q34 24 48.5 55t14.5 80v72h-63v182h135v-245q0 -91 -31 -141.5t-104 -80.5z" />
    <glyph glyph-name="hyphen" unicode="-" horiz-adv-x="670" 
d="M80 473v129h495v-129h-495z" />
    <glyph glyph-name="period" unicode="." horiz-adv-x="545" 
d="M205 0v182h135v-182h-135z" />
    <glyph glyph-name="slash" unicode="/" horiz-adv-x="598" 
d="M524 1511h99l-549 -1683h-101z" />
    <glyph glyph-name="zero" unicode="0" horiz-adv-x="1090" 
d="M213 696q0 -314 82 -468t250 -154q167 0 248 153t81 469q0 315 -81 468t-248 153q-168 0 -250 -153.5t-82 -467.5zM76 696q0 359 120 547.5t349 188.5q228 0 349.5 -190t121.5 -548t-121 -546.5t-350 -188.5q-228 0 -348.5 189t-120.5 548z" />
    <glyph glyph-name="one" unicode="1" horiz-adv-x="1090" 
d="M547 0v1143q-48 -43 -129 -62.5t-207 -19.5h-21v88h9q179 0 266 68.5t96 213.5l119 1v-1432h-133z" />
    <glyph glyph-name="two" unicode="2" horiz-adv-x="1090" 
d="M70 0q0 7 -1 21.5t-1 21.5q0 153 82.5 274t269.5 238q46 29 132 79q176 104 226 157q46 50 66 102t20 121q0 141 -80 221t-221 80q-158 0 -242 -92.5t-86 -266.5h-133q7 229 127.5 352.5t337.5 123.5q200 0 317 -112t117 -302q0 -90 -27.5 -160.5t-86.5 -134.5
q-67 -73 -276 -190q-66 -37 -101 -58q-157 -92 -228 -175.5t-79 -184.5h790v-115h-923z" />
    <glyph glyph-name="three" unicode="3" horiz-adv-x="1090" 
d="M72 410l139 -1q2 -161 85 -249t232 -88q160 0 245 82.5t85 236.5q0 150 -88.5 222.5t-271.5 72.5q-26 0 -38.5 -0.5t-22.5 -1.5l-1 107q10 0 26.5 -1.5t24.5 -1.5q165 0 248.5 69t83.5 204q0 117 -75 188.5t-199 71.5q-141 0 -218.5 -81t-82.5 -234h-127q7 201 121 313.5
t309 112.5q186 0 295.5 -100.5t109.5 -270.5q0 -108 -50 -187t-148 -126q118 -36 180.5 -128.5t62.5 -232.5q0 -197 -124 -312.5t-336 -115.5q-217 0 -341 119t-124 328v4z" />
    <glyph glyph-name="four" unicode="4" horiz-adv-x="1090" 
d="M692 467v754l-493 -754h493zM692 0v354h-616v115l606 922h143v-924h191v-113h-191v-354h-133z" />
    <glyph glyph-name="five" unicode="5" horiz-adv-x="1090" 
d="M78 368l133 1q6 -137 93 -215t233 -78q152 0 237.5 93.5t85.5 260.5q0 173 -88.5 272t-243.5 99q-97 0 -172 -36.5t-120 -105.5h-113l108 732h701v-113h-604l-70 -461q52 46 125.5 69t167.5 23q203 0 324.5 -128.5t121.5 -344.5q0 -220 -125 -348.5t-340 -128.5
q-201 0 -323 110.5t-131 298.5z" />
    <glyph glyph-name="six" unicode="6" horiz-adv-x="1090" 
d="M250 442q0 -169 85 -269.5t228 -100.5q153 0 233.5 89.5t80.5 260.5q0 179 -81 277t-229 98q-138 0 -227.5 -100.5t-89.5 -254.5zM217 685q54 108 147.5 164t221.5 56q197 0 313.5 -129t116.5 -348q0 -216 -119.5 -342.5t-323.5 -126.5q-239 0 -365 171.5t-126 496.5
q0 392 134.5 599.5t387.5 207.5q167 0 273.5 -98.5t121.5 -266.5h-125q-15 120 -87.5 186t-190.5 66q-178 0 -274 -161.5t-105 -474.5z" />
    <glyph glyph-name="seven" unicode="7" horiz-adv-x="1090" 
d="M307 0q59 358 200.5 675.5t362.5 590.5h-749v125h891v-125q-228 -276 -367 -589t-194 -677h-144z" />
    <glyph glyph-name="eight" unicode="8" horiz-adv-x="1090" 
d="M221 387q0 -138 90.5 -225.5t233.5 -87.5q145 0 234 88.5t89 234.5q0 139 -86.5 220t-236.5 81q-154 0 -239 -81.5t-85 -229.5zM270 1059q0 -117 73 -184.5t202 -67.5t202.5 67.5t73.5 184.5q0 121 -74.5 192.5t-201.5 71.5t-201 -71t-74 -193zM330 758q-99 52 -147 127
t-48 178q0 168 111 268.5t299 100.5t298.5 -100.5t110.5 -268.5q0 -103 -47.5 -178t-146.5 -127q116 -45 182 -142t66 -225q0 -199 -124.5 -315.5t-338.5 -116.5t-338.5 116.5t-124.5 315.5q0 128 65.5 225t182.5 142z" />
    <glyph glyph-name="nine" unicode="9" horiz-adv-x="1090" 
d="M209 969q0 -179 80.5 -276t228.5 -97q139 0 228.5 99t89.5 253q0 170 -85 270.5t-229 100.5q-153 0 -233 -89.5t-80 -260.5zM211 322q18 -123 89.5 -186.5t191.5 -63.5q178 0 272 158.5t104 476.5q-53 -109 -147 -165.5t-221 -56.5q-197 0 -313.5 129t-116.5 349
q0 215 119 342t323 127q240 0 366 -170.5t126 -495.5q0 -394 -134 -600.5t-389 -206.5q-170 0 -274 95.5t-121 267.5h125z" />
    <glyph glyph-name="colon" unicode=":" horiz-adv-x="592" 
d="M229 860v182h136v-182h-136zM229 0v182h136v-182h-136z" />
    <glyph glyph-name="semicolon" unicode=";" horiz-adv-x="592" 
d="M227 860v182h138v-182h-138zM227 -285v78q34 24 49 55t15 80v72h-64v182h138v-245q0 -90 -32 -141t-106 -81z" />
    <glyph glyph-name="less" unicode="&#x3c;" horiz-adv-x="1706" 
d="M1442 1034l-1045 -424l1045 -424v-88l-1178 482v61l1178 483v-90z" />
    <glyph glyph-name="equal" unicode="=" horiz-adv-x="1706" 
d="M1452 469v-82h-1198v82h1198zM1452 831v-79h-1198v79h1198z" />
    <glyph glyph-name="greater" unicode="&#x3e;" horiz-adv-x="1706" 
d="M1442 641v-61l-1178 -482v88l1045 424l-1045 424v90z" />
    <glyph glyph-name="question" unicode="?" horiz-adv-x="1006" 
d="M422 360v125q0 84 27 145.5t114 149.5q24 25 70 69q164 157 164 277q0 126 -76 197.5t-211 71.5q-157 0 -237.5 -84.5t-84.5 -253.5h-133q6 222 123.5 338t335.5 116q194 0 309 -101.5t115 -272.5q0 -94 -35.5 -168.5t-114.5 -147.5q-18 -17 -53 -49q-192 -173 -192 -303
v-109h-121zM416 0v182h135v-182h-135z" />
    <glyph glyph-name="at" unicode="@" horiz-adv-x="2048" 
d="M1303 827l61 129h80l-137 -553q-10 -36 -15.5 -64.5t-5.5 -43.5q0 -44 30.5 -68t86.5 -24q48 0 100 19.5t103 56.5q101 74 162 207t61 282q0 273 -199.5 439.5t-525.5 166.5q-168 0 -310.5 -48t-258.5 -144q-154 -128 -232 -297t-78 -375q0 -327 221.5 -522t591.5 -195
q161 0 324 50.5t299 142.5l29 -45q-146 -110 -308.5 -165t-339.5 -55q-187 0 -343 46.5t-277 138.5q-152 115 -226.5 267.5t-74.5 348.5q0 162 50.5 307t147.5 265q144 175 345.5 265.5t449.5 90.5q160 0 304.5 -44t248.5 -124q128 -98 194 -226.5t66 -277.5
q0 -169 -63 -308t-181 -232q-67 -54 -145.5 -82.5t-159.5 -28.5q-95 0 -143.5 36.5t-48.5 108.5q0 12 3 34q1 3 1 5q-49 -88 -125 -136t-166 -48q-154 0 -233.5 83t-79.5 243q0 228 134.5 386t326.5 158q95 0 160 -43t96 -127zM1219 467l63 254q-22 99 -81.5 151t-151.5 52
q-152 0 -255.5 -138t-103.5 -340q0 -115 57.5 -180t159.5 -65q111 0 196 72.5t116 193.5z" />
    <glyph glyph-name="A" unicode="A" horiz-adv-x="1262" 
d="M344 571h571l-286 758zM-10 0l559 1473h162l559 -1473h-142l-167 453h-660l-170 -453h-141z" />
    <glyph glyph-name="B" unicode="B" horiz-adv-x="1311" 
d="M299 121h397q220 0 305.5 64t85.5 218q0 150 -96 226t-284 76h-408v-584zM627 1352h-328v-533h315q228 0 317 61t89 207q0 145 -85.5 205t-307.5 60zM164 0v1473h487q127 0 201.5 -14t128.5 -46q84 -47 131 -130.5t47 -186.5q0 -110 -57.5 -193t-161.5 -125
q134 -29 210.5 -130.5t76.5 -250.5q0 -129 -61.5 -225t-170.5 -139q-44 -18 -134 -25.5t-290 -7.5h-407z" />
    <glyph glyph-name="C" unicode="C" horiz-adv-x="1425" 
d="M1196 481h133q-17 -245 -172.5 -383.5t-415.5 -138.5q-297 0 -469 208.5t-172 571.5q0 360 173.5 566t471.5 206q250 0 404.5 -127.5t165.5 -341.5h-133q-17 162 -134 255.5t-303 93.5q-239 0 -372 -170.5t-133 -479.5q0 -311 135.5 -487t374.5 -176q195 0 313.5 107
t132.5 296z" />
    <glyph glyph-name="D" unicode="D" horiz-adv-x="1427" 
d="M299 121h285q167 0 244 12.5t128 42.5q112 67 167 204.5t55 354.5q0 207 -53 344.5t-158 206.5q-54 36 -132.5 51t-265.5 15h-32h-238v-1231zM510 1473h100q182 0 273 -19t157 -61q136 -86 207.5 -253.5t71.5 -400.5q0 -251 -78 -422t-231 -254q-64 -34 -157 -48.5
t-284 -14.5h-405v1473h346z" />
    <glyph glyph-name="E" unicode="E" horiz-adv-x="1239" 
d="M164 0v1473h964v-121h-829v-537h758v-117h-758v-577h854v-121h-989z" />
    <glyph glyph-name="F" unicode="F" horiz-adv-x="1163" 
d="M164 0v1473h932v-121h-797v-533h723v-121h-723v-698h-135z" />
    <glyph glyph-name="G" unicode="G" horiz-adv-x="1534" 
d="M1290 0l-14 260q-68 -142 -203.5 -221.5t-310.5 -79.5q-307 0 -483.5 209t-176.5 571q0 359 180 565.5t488 206.5q257 0 417.5 -122.5t192.5 -344.5h-139q-31 163 -156 256t-313 93q-255 0 -393.5 -169.5t-138.5 -482.5q0 -303 139 -480t377 -177q243 0 378.5 143
t135.5 402v6h-486v121h615v-756h-109z" />
    <glyph glyph-name="H" unicode="H" horiz-adv-x="1442" 
d="M164 0v1473h135v-639h842v639h137v-1473h-137v713h-842v-713h-135z" />
    <glyph glyph-name="I" unicode="I" horiz-adv-x="485" 
d="M172 0v1473h139v-1473h-139z" />
    <glyph glyph-name="J" unicode="J" horiz-adv-x="985" 
d="M45 453h135v-95q0 -141 61 -209.5t187 -68.5q143 0 204.5 71t61.5 238v1084h135v-1115q0 -193 -104 -296t-301 -103q-188 0 -283.5 97.5t-95.5 289.5v107z" />
    <glyph glyph-name="K" unicode="K" horiz-adv-x="1309" 
d="M164 0v1473h135v-781l760 781h174l-598 -611l668 -862h-168l-590 772l-246 -252v-520h-135z" />
    <glyph glyph-name="L" unicode="L" horiz-adv-x="1065" 
d="M164 0v1473h139v-1352h752v-121h-891z" />
    <glyph glyph-name="M" unicode="M" horiz-adv-x="1669" 
d="M162 0v1473h190l486 -1297l477 1297h190v-1473h-131v1284l-473 -1284h-125l-481 1284v-1284h-133z" />
    <glyph glyph-name="N" unicode="N" horiz-adv-x="1442" 
d="M164 0v1473h149l832 -1264v1264h131v-1473h-150l-829 1264v-1264h-133z" />
    <glyph glyph-name="O" unicode="O" horiz-adv-x="1550" 
d="M240 735q0 -302 144 -478.5t390 -176.5q247 0 392 176t145 479q0 304 -145 481t-392 177q-243 0 -388.5 -178.5t-145.5 -479.5zM100 735q0 358 182 567t492 209q311 0 493.5 -209t182.5 -567t-182.5 -567t-493.5 -209q-310 0 -492 209t-182 567z" />
    <glyph glyph-name="P" unicode="P" horiz-adv-x="1237" 
d="M299 762h315q218 0 313 70.5t95 228.5q0 150 -85 220.5t-265 70.5h-373v-590zM164 0v1473h514q241 0 362 -104t121 -310q0 -213 -135.5 -316.5t-413.5 -103.5h-313v-639h-135z" />
    <glyph glyph-name="Q" unicode="Q" horiz-adv-x="1550" 
d="M1343 -109l-210 168q-66 -50 -155 -75t-204 -25q-310 0 -492 209t-182 567t182 567t492 209q311 0 493.5 -209t182.5 -567q0 -201 -54 -348.5t-165 -249.5l186 -151zM1030 143l-174 142l74 94l203 -162q88 82 133 212.5t45 305.5q0 304 -145 481t-392 177
q-243 0 -388.5 -178.5t-145.5 -479.5q0 -306 146 -480.5t400 -174.5q72 0 132 15.5t112 47.5z" />
    <glyph glyph-name="R" unicode="R" horiz-adv-x="1325" 
d="M299 780h391q206 0 296.5 70t90.5 227q0 72 -28.5 130t-81.5 93q-41 28 -98 40t-187 12h-57h-326v-572zM164 0v1473h491q171 0 247.5 -14t133.5 -46q87 -49 134 -135.5t47 -196.5q0 -136 -61 -229t-177 -133q90 -30 129 -92t55 -250l19 -221q4 -52 16 -86t31 -50v-20
h-150q-12 23 -20 60t-12 91l-17 195q-15 202 -72 257.5t-229 55.5h-430v-659h-135z" />
    <glyph glyph-name="S" unicode="S" horiz-adv-x="1241" 
d="M94 446h135q2 -174 110 -270t304 -96q172 0 270.5 77.5t98.5 213.5q0 126 -69 192t-275 119l-140 35q-226 58 -312.5 147.5t-86.5 251.5q0 179 131 287t350 108q232 0 362.5 -118t133.5 -330h-137q-3 157 -98 242.5t-267 85.5q-162 0 -251 -73t-89 -206q0 -101 58 -159.5
t192 -92.5l172 -43q255 -64 358 -162t103 -270q0 -198 -135.5 -312t-370.5 -114q-263 0 -405 123.5t-142 353.5v10z" />
    <glyph glyph-name="T" unicode="T" horiz-adv-x="1090" 
d="M475 0v1352h-457v121h1053v-121h-457v-1352h-139z" />
    <glyph glyph-name="U" unicode="U" horiz-adv-x="1427" 
d="M154 1473h135v-928q0 -245 100.5 -355t323.5 -110t324.5 110t101.5 355v928h135v-947q0 -281 -141 -424t-420 -143q-278 0 -418.5 142.5t-140.5 424.5v947z" />
    <glyph glyph-name="V" unicode="V" horiz-adv-x="1163" 
d="M510 0l-512 1473h141l445 -1301l444 1301h137l-510 -1473h-145z" />
    <glyph glyph-name="W" unicode="W" horiz-adv-x="1759" 
d="M393 0l-381 1473h133l328 -1270l326 1270h166l321 -1270l332 1270h129l-387 -1473h-148l-333 1309l-340 -1309h-146z" />
    <glyph glyph-name="X" unicode="X" horiz-adv-x="1202" 
d="M23 0l493 758l-477 715h160l395 -603l391 603h158l-473 -719l510 -754h-162l-424 639l-412 -639h-159z" />
    <glyph glyph-name="Y" unicode="Y" horiz-adv-x="1147" 
d="M506 0v647l-520 826h155l432 -697l433 697h155l-520 -826v-647h-135z" />
    <glyph glyph-name="Z" unicode="Z" horiz-adv-x="1165" 
d="M35 0v125l911 1227h-842v121h1010v-117l-917 -1233h931v-123h-1093z" />
    <glyph glyph-name="bracketleft" unicode="[" horiz-adv-x="676" 
d="M618 -410h-372v1883h372v-103h-247v-1675h247v-105z" />
    <glyph glyph-name="backslash" unicode="\" horiz-adv-x="598" 
d="M524 -172l-551 1683h101l549 -1683h-99z" />
    <glyph glyph-name="bracketright" unicode="]" horiz-adv-x="676" 
d="M57 -410v105h248v1675h-248v103h373v-1883h-373z" />
    <glyph glyph-name="asciicircum" unicode="^" horiz-adv-x="2048" 
d="M1081 1458l541 -557h-125l-473 469l-475 -469h-125l539 557h118z" />
    <glyph glyph-name="underscore" unicode="_" 
d="M1024 -403v-80h-1024v80h1024z" />
    <glyph glyph-name="grave" unicode="`" 
d="M545 1200l-269 350h152l209 -350h-92z" />
    <glyph glyph-name="a" unicode="a" horiz-adv-x="1098" 
d="M821 557q-49 -18 -125.5 -29t-246.5 -20q-118 -31 -178 -88t-60 -137q0 -91 64.5 -145t175.5 -54q169 0 269.5 87.5t100.5 238.5v147zM829 154q-84 -91 -182 -136t-211 -45q-161 0 -256.5 84t-95.5 224q0 91 43.5 159t126.5 107q95 43 317 60q43 3 65 5q13 3 35 7
q152 31 152 131q0 124 -61.5 177.5t-202.5 53.5q-143 0 -219 -59.5t-82 -176.5l-121 1q4 159 117 251.5t305 92.5q191 0 290 -82t99 -240v-580q0 -66 16 -82t60 -16q14 0 24 0.5t21 1.5v-92q-23 -5 -46 -7.5t-42 -2.5q-76 0 -114 37t-38 110v17z" />
    <glyph glyph-name="b" unicode="b" horiz-adv-x="1182" 
d="M254 530q0 -212 95.5 -331t264.5 -119q173 0 266 116.5t93 333.5q0 216 -93.5 333.5t-265.5 117.5q-173 0 -266.5 -117t-93.5 -334zM137 0v1473h123v-599q60 108 153 162t220 54q218 0 344.5 -150t126.5 -410q0 -259 -128.5 -409t-350.5 -150q-123 0 -216.5 54.5
t-148.5 158.5v-184h-123z" />
    <glyph glyph-name="c" unicode="c" horiz-adv-x="1057" 
d="M868 367h123q-17 -183 -135 -288.5t-307 -105.5q-216 0 -340.5 148t-124.5 403q0 264 126.5 415t346.5 151q179 0 294.5 -100.5t124.5 -264.5h-118q-15 116 -97.5 186t-203.5 70q-159 0 -252.5 -120t-93.5 -326q0 -211 94.5 -334t253.5 -123q124 0 207 77t102 212z" />
    <glyph glyph-name="d" unicode="d" horiz-adv-x="1190" 
d="M217 530q0 -214 94.5 -332t263.5 -118q174 0 267.5 116.5t93.5 333.5q0 216 -94 333.5t-267 117.5q-172 0 -265 -116.5t-93 -334.5zM1049 1473v-1473h-123v180q-61 -104 -155.5 -156.5t-219.5 -52.5q-215 0 -340 150t-125 409t127.5 409.5t345.5 150.5q125 0 217.5 -53
t149.5 -158v594h123z" />
    <glyph glyph-name="e" unicode="e" horiz-adv-x="1085" 
d="M209 508v-6q0 -195 94 -310.5t252 -115.5q125 0 209 67.5t102 184.5h123q-20 -162 -140 -259.5t-302 -97.5q-217 0 -340 147t-123 408q0 266 123.5 415t343.5 149q214 0 333.5 -142.5t119.5 -398.5v-41h-795zM211 607l666 -1q-8 176 -95.5 276.5t-232.5 100.5
q-146 0 -237.5 -102t-100.5 -274z" />
    <glyph glyph-name="f" unicode="f" horiz-adv-x="545" 
d="M197 0v963h-156v100h156v194q0 120 60 175t192 55q14 0 29.5 -1.5t33.5 -5.5v-110q-4 0 -12 1q-40 3 -56 3q-69 0 -97 -28.5t-28 -100.5v-182h193v-100h-193v-963h-122z" />
    <glyph glyph-name="g" unicode="g" horiz-adv-x="1186" 
d="M217 530q0 -211 95.5 -331.5t262.5 -120.5q171 0 266 119t95 333q0 215 -94.5 333t-266.5 118t-265 -117t-93 -334zM1049 1063v-1008q0 -243 -127.5 -367t-376.5 -124q-186 0 -300.5 83.5t-125.5 227.5h126q11 -97 87.5 -149t210.5 -52q192 0 288.5 95t96.5 282v131
q-65 -106 -157.5 -158.5t-213.5 -52.5q-219 0 -345 149.5t-126 409.5q0 258 127.5 409t343.5 151q123 0 215 -53t154 -158v184h123z" />
    <glyph glyph-name="h" unicode="h" horiz-adv-x="1108" 
d="M137 0v1473h125v-576q59 95 147 144t203 49q106 0 190 -40t128 -110q23 -38 33 -93t10 -200v-647h-125v645q0 199 -57 266.5t-203 67.5q-149 0 -237.5 -95.5t-88.5 -256.5v-627h-125z" />
    <glyph glyph-name="i" unicode="i" horiz-adv-x="422" 
d="M150 1288v185h122v-185h-122zM150 0v1063h122v-1063h-122z" />
    <glyph glyph-name="j" unicode="j" horiz-adv-x="446" 
d="M186 1288v185h123v-185h-123zM20 -428l1 106q10 -1 19.5 -1.5t27.5 -0.5q67 0 92.5 28.5t25.5 102.5v1256h123v-1270q0 -121 -50.5 -175t-162.5 -54q-16 0 -59 6q-10 1 -17 2z" />
    <glyph glyph-name="k" unicode="k" horiz-adv-x="991" 
d="M137 0v1473h123v-926l531 516h157l-401 -389l450 -674h-141l-395 592l-201 -193v-399h-123z" />
    <glyph glyph-name="l" unicode="l" horiz-adv-x="422" 
d="M150 0v1473h122v-1473h-122z" />
    <glyph glyph-name="m" unicode="m" horiz-adv-x="1708" 
d="M137 0v1063h115v-176q54 98 140.5 150.5t197.5 52.5q119 0 198 -54.5t105 -154.5q53 102 140.5 155.5t201.5 53.5q173 0 258.5 -86.5t85.5 -262.5v-741h-125v731q0 134 -52 192t-171 58q-141 0 -226 -87t-85 -228v-666h-123v719q0 132 -55 196t-169 64q-140 0 -226.5 -89
t-86.5 -233v-657h-123z" />
    <glyph glyph-name="n" unicode="n" horiz-adv-x="1104" 
d="M137 0v1063h119v-170q60 98 148 147.5t204 49.5q110 0 193 -39t127 -111q23 -37 33 -89.5t10 -172.5v-31v-647h-127v659q0 187 -57.5 253.5t-202.5 66.5q-149 0 -235.5 -94.5t-86.5 -257.5v-627h-125z" />
    <glyph glyph-name="o" unicode="o" horiz-adv-x="1143" 
d="M211 530q0 -214 94.5 -332t265.5 -118q173 0 267 117t94 333t-94 333.5t-267 117.5q-171 0 -265.5 -118t-94.5 -333zM84 530q0 267 127.5 413.5t359.5 146.5q233 0 361.5 -146.5t128.5 -413.5q0 -265 -128 -411t-362 -146q-232 0 -359.5 145.5t-127.5 411.5z" />
    <glyph glyph-name="p" unicode="p" horiz-adv-x="1188" 
d="M260 530q0 -211 95 -330.5t263 -119.5q174 0 267.5 117t93.5 333t-94 333.5t-267 117.5q-172 0 -265 -117t-93 -334zM141 -428v1491h125v-191q60 111 151 164.5t220 53.5q219 0 345 -149.5t126 -410.5t-127.5 -410t-349.5 -149q-123 0 -213 53t-152 160v-612h-125z" />
    <glyph glyph-name="q" unicode="q" horiz-adv-x="1190" 
d="M213 530q0 -214 94.5 -332t263.5 -118q173 0 267 117t94 333q0 215 -94.5 333t-266.5 118t-265 -117t-93 -334zM1044 1063v-1491h-122v618q-59 -109 -151.5 -164t-217.5 -55q-218 0 -343.5 149t-125.5 410q0 262 126.5 411t346.5 149q124 0 214 -52.5t151 -158.5v184h122
z" />
    <glyph glyph-name="r" unicode="r" horiz-adv-x="629" 
d="M137 0v1063h119v-186q46 107 127.5 160t200.5 53h14v-129h-16q-159 0 -238.5 -94t-79.5 -281v-586h-127z" />
    <glyph glyph-name="s" unicode="s" horiz-adv-x="1006" 
d="M92 331h123q5 -110 83.5 -178.5t201.5 -68.5q133 0 209.5 52.5t76.5 142.5q0 129 -283 197q-4 1 -5 1q-228 55 -305.5 121t-77.5 184q0 137 101.5 222.5t264.5 85.5q179 0 285 -89.5t117 -248.5h-125q-8 108 -81 168.5t-198 60.5q-109 0 -174 -50t-65 -132
q0 -142 290 -210q38 -9 57 -13q182 -45 253 -112t71 -188q0 -135 -111.5 -220t-293.5 -85q-185 0 -297 98t-117 262z" />
    <glyph glyph-name="t" unicode="t" horiz-adv-x="555" 
d="M299 1368v-305h197v-100h-197v-775q0 -68 17 -90t61 -22q19 0 43 3.5t75 14.5l1 -98q-45 -12 -82 -17.5t-70 -5.5q-92 0 -130 46.5t-38 168.5v775h-145v100h145v305h123z" />
    <glyph glyph-name="u" unicode="u" horiz-adv-x="1108" 
d="M969 1063v-1063h-119v170q-61 -101 -148.5 -150t-207.5 -49q-180 0 -270.5 94.5t-90.5 282.5v715h123v-686q0 -159 60 -226t200 -67q153 0 241.5 93.5t88.5 256.5v629h123z" />
    <glyph glyph-name="v" unicode="v" horiz-adv-x="948" 
d="M406 0l-400 1063h133l340 -913l334 913h127l-397 -1063h-137z" />
    <glyph glyph-name="w" unicode="w" horiz-adv-x="1417" 
d="M334 0l-334 1063h125l274 -889l244 889h137l240 -889l272 889h125l-334 -1063h-131l-245 889l-244 -889h-129z" />
    <glyph glyph-name="x" unicode="x" horiz-adv-x="913" 
d="M0 0l373 545l-357 518h154l279 -424l274 424h149l-348 -516l387 -547h-155l-305 451l-304 -451h-147z" />
    <glyph glyph-name="y" unicode="y" horiz-adv-x="954" 
d="M467 -207q-46 -124 -111.5 -176.5t-173.5 -52.5q-26 0 -46 2.5t-40 8.5v111q34 -5 53.5 -7.5t30.5 -2.5q67 0 105.5 35t79.5 144l49 133l-414 1075h131l344 -907l336 907h127z" />
    <glyph glyph-name="z" unicode="z" horiz-adv-x="950" 
d="M41 0v102l688 859h-653v102h801v-109l-678 -845h708v-109h-866z" />
    <glyph glyph-name="braceleft" unicode="{" 
d="M848 1389h-37q-135 0 -182 -51.5t-47 -213.5v-241q0 -175 -43 -248t-152 -105q109 -32 152 -104t43 -248v-241q0 -162 46.5 -212.5t180.5 -50.5h39v-88h-43q-189 0 -257.5 74.5t-68.5 300.5v240q0 158 -58 222t-200 64q-7 0 -21.5 -1t-23.5 -1v90q10 -1 20.5 -1.5
t28.5 -0.5q139 0 196.5 64.5t57.5 222.5v240q0 227 68.5 302t257.5 75h43v-88z" />
    <glyph glyph-name="bar" unicode="|" 
d="M557 1565v-2048h-90v2048h90z" />
    <glyph glyph-name="braceright" unicode="}" 
d="M545 1100v-240q0 -158 58 -222.5t200 -64.5q7 0 21.5 1t23.5 1v-90q-9 0 -23.5 1t-21.5 1q-142 0 -200 -64t-58 -222v-240q0 -226 -68.5 -300.5t-257.5 -74.5h-43v88h39q134 0 180.5 50.5t46.5 212.5v241q0 174 43.5 247t153.5 105q-110 32 -153.5 105t-43.5 248v241
q0 162 -47 213.5t-182 51.5h-37v88h43q189 0 257.5 -75t68.5 -302z" />
    <glyph glyph-name="asciitilde" unicode="~" horiz-adv-x="1706" 
d="M1530 647q-106 -74 -202 -110.5t-185 -36.5q-99 0 -266 61q-16 6 -22 8q-12 4 -33 12q-167 60 -257 60q-83 0 -175 -37.5t-212 -122.5v92q105 74 201 110t186 36q100 0 271 -61q12 -5 19 -7q8 -3 27 -10q168 -61 261 -61q83 0 175 37.5t212 121.5v-92z" />
    <glyph glyph-name="Adieresis" unicode="&#xc4;" horiz-adv-x="1262" 
d="M344 571h571l-286 758zM-10 0l559 1473h162l559 -1473h-142l-167 453h-660l-170 -453h-141zM743 1698v162h141v-162h-141zM422 1698v162h141v-162h-141z" />
    <glyph glyph-name="Aring" unicode="&#xc5;" horiz-adv-x="1262" 
d="M344 571h571l-286 758zM-10 0l559 1473h162l559 -1473h-142l-167 453h-660l-170 -453h-141zM487 1735q0 -59 41 -100.5t101 -41.5q58 0 99.5 41.5t41.5 100.5q0 60 -41 101.5t-100 41.5q-60 0 -101 -41.5t-41 -101.5zM395 1737q0 99 68.5 167t167.5 68q98 0 165.5 -68.5
t67.5 -166.5q0 -99 -67.5 -167.5t-165.5 -68.5q-99 0 -167.5 68.5t-68.5 167.5z" />
    <glyph glyph-name="Ccedilla" unicode="&#xc7;" horiz-adv-x="1425" 
d="M1196 481h133q-17 -245 -172.5 -383.5t-415.5 -138.5q-297 0 -469 208.5t-172 571.5q0 360 173.5 566t471.5 206q250 0 404.5 -127.5t165.5 -341.5h-133q-17 162 -134 255.5t-303 93.5q-239 0 -372 -170.5t-133 -479.5q0 -311 135.5 -487t374.5 -176q195 0 313.5 107
t132.5 296zM504 -420v78q77 -18 136 -26.5t102 -8.5q64 0 97.5 23t33.5 67q0 54 -35 79.5t-111 25.5q-18 0 -28 -0.5t-18 -1.5l-1 184h66v-111h14q108 0 165.5 -44t57.5 -128q0 -85 -58 -130.5t-167 -45.5q-58 0 -120.5 9.5t-133.5 29.5z" />
    <glyph glyph-name="Eacute" unicode="&#xc9;" horiz-adv-x="1239" 
d="M164 0v1473h964v-121h-829v-537h758v-117h-758v-577h854v-121h-989zM626 1620h-92l209 350h152z" />
    <glyph glyph-name="Ntilde" unicode="&#xd1;" horiz-adv-x="1442" 
d="M164 0v1473h149l832 -1264v1264h131v-1473h-150l-829 1264v-1264h-133zM1010 1884q-26 -90 -74.5 -136t-116.5 -46q-13 0 -29.5 2.5t-35.5 7.5l-96 31q-13 4 -26 6t-28 2q-29 0 -53 -18.5t-39 -52.5h-80q22 88 72 135t123 47q16 0 29 -2t24 -6l96 -33q14 -5 28 -7.5
t28 -2.5q33 0 56.5 18t39.5 55h82z" />
    <glyph glyph-name="Odieresis" unicode="&#xd6;" horiz-adv-x="1550" 
d="M240 735q0 -302 144 -478.5t390 -176.5q247 0 392 176t145 479q0 304 -145 481t-392 177q-243 0 -388.5 -178.5t-145.5 -479.5zM100 735q0 358 182 567t492 209q311 0 493.5 -209t182.5 -567t-182.5 -567t-493.5 -209q-310 0 -492 209t-182 567zM866 1698v162h141v-162
h-141zM545 1698v162h141v-162h-141z" />
    <glyph glyph-name="Udieresis" unicode="&#xdc;" horiz-adv-x="1427" 
d="M154 1473h135v-928q0 -245 100.5 -355t323.5 -110t324.5 110t101.5 355v928h135v-947q0 -281 -141 -424t-420 -143q-278 0 -418.5 142.5t-140.5 424.5v947zM805 1698v162h141v-162h-141zM484 1698v162h141v-162h-141z" />
    <glyph glyph-name="aacute" unicode="&#xe1;" horiz-adv-x="1098" 
d="M821 557q-49 -18 -125.5 -29t-246.5 -20q-118 -31 -178 -88t-60 -137q0 -91 64.5 -145t175.5 -54q169 0 269.5 87.5t100.5 238.5v147zM829 154q-84 -91 -182 -136t-211 -45q-161 0 -256.5 84t-95.5 224q0 91 43.5 159t126.5 107q95 43 317 60q43 3 65 5q13 3 35 7
q152 31 152 131q0 124 -61.5 177.5t-202.5 53.5q-143 0 -219 -59.5t-82 -176.5l-121 1q4 159 117 251.5t305 92.5q191 0 290 -82t99 -240v-580q0 -66 16 -82t60 -16q14 0 24 0.5t21 1.5v-92q-23 -5 -46 -7.5t-42 -2.5q-76 0 -114 37t-38 110v17zM524 1200h-92l209 350h152z
" />
    <glyph glyph-name="agrave" unicode="&#xe0;" horiz-adv-x="1098" 
d="M821 557q-49 -18 -125.5 -29t-246.5 -20q-118 -31 -178 -88t-60 -137q0 -91 64.5 -145t175.5 -54q169 0 269.5 87.5t100.5 238.5v147zM829 154q-84 -91 -182 -136t-211 -45q-161 0 -256.5 84t-95.5 224q0 91 43.5 159t126.5 107q95 43 317 60q43 3 65 5q13 3 35 7
q152 31 152 131q0 124 -61.5 177.5t-202.5 53.5q-143 0 -219 -59.5t-82 -176.5l-121 1q4 159 117 251.5t305 92.5q191 0 290 -82t99 -240v-580q0 -66 16 -82t60 -16q14 0 24 0.5t21 1.5v-92q-23 -5 -46 -7.5t-42 -2.5q-76 0 -114 37t-38 110v17zM590 1200l-269 350h152
l209 -350h-92z" />
    <glyph glyph-name="acircumflex" unicode="&#xe2;" horiz-adv-x="1098" 
d="M821 557q-49 -18 -125.5 -29t-246.5 -20q-118 -31 -178 -88t-60 -137q0 -91 64.5 -145t175.5 -54q169 0 269.5 87.5t100.5 238.5v147zM829 154q-84 -91 -182 -136t-211 -45q-161 0 -256.5 84t-95.5 224q0 91 43.5 159t126.5 107q95 43 317 60q43 3 65 5q13 3 35 7
q152 31 152 131q0 124 -61.5 177.5t-202.5 53.5q-143 0 -219 -59.5t-82 -176.5l-121 1q4 159 117 251.5t305 92.5q191 0 290 -82t99 -240v-580q0 -66 16 -82t60 -16q14 0 24 0.5t21 1.5v-92q-23 -5 -46 -7.5t-42 -2.5q-76 0 -114 37t-38 110v17zM281 1200l200 350h152
l200 -350h-92l-184 264l-184 -264h-92z" />
    <glyph glyph-name="adieresis" unicode="&#xe4;" horiz-adv-x="1098" 
d="M821 557q-49 -18 -125.5 -29t-246.5 -20q-118 -31 -178 -88t-60 -137q0 -91 64.5 -145t175.5 -54q169 0 269.5 87.5t100.5 238.5v147zM829 154q-84 -91 -182 -136t-211 -45q-161 0 -256.5 84t-95.5 224q0 91 43.5 159t126.5 107q95 43 317 60q43 3 65 5q13 3 35 7
q152 31 152 131q0 124 -61.5 177.5t-202.5 53.5q-143 0 -219 -59.5t-82 -176.5l-121 1q4 159 117 251.5t305 92.5q191 0 290 -82t99 -240v-580q0 -66 16 -82t60 -16q14 0 24 0.5t21 1.5v-92q-23 -5 -46 -7.5t-42 -2.5q-76 0 -114 37t-38 110v17zM647 1278v162h141v-162h-141
zM326 1278v162h141v-162h-141z" />
    <glyph glyph-name="atilde" unicode="&#xe3;" horiz-adv-x="1098" 
d="M821 557q-49 -18 -125.5 -29t-246.5 -20q-118 -31 -178 -88t-60 -137q0 -91 64.5 -145t175.5 -54q169 0 269.5 87.5t100.5 238.5v147zM829 154q-84 -91 -182 -136t-211 -45q-161 0 -256.5 84t-95.5 224q0 91 43.5 159t126.5 107q95 43 317 60q43 3 65 5q13 3 35 7
q152 31 152 131q0 124 -61.5 177.5t-202.5 53.5q-143 0 -219 -59.5t-82 -176.5l-121 1q4 159 117 251.5t305 92.5q191 0 290 -82t99 -240v-580q0 -66 16 -82t60 -16q14 0 24 0.5t21 1.5v-92q-23 -5 -46 -7.5t-42 -2.5q-76 0 -114 37t-38 110v17zM846 1464
q-26 -90 -74.5 -136t-116.5 -46q-13 0 -29.5 2.5t-35.5 7.5l-96 31q-13 4 -26 6t-28 2q-29 0 -53 -18.5t-39 -52.5h-80q22 88 72 135t123 47q16 0 29 -2t24 -6l96 -33q14 -5 28 -7.5t28 -2.5q33 0 56.5 18t39.5 55h82z" />
    <glyph glyph-name="aring" unicode="&#xe5;" horiz-adv-x="1098" 
d="M410 1395q0 -64 43 -108t106 -44q62 0 106 44.5t44 107.5t-43.5 106t-106.5 43t-106 -43t-43 -106zM317 1395q0 101 70 170t172 69q101 0 170.5 -69t69.5 -170q0 -102 -69.5 -172t-170.5 -70t-171.5 70t-70.5 172zM821 557q-77 -29 -318 -50q-37 -4 -54 -5
q-117 -26 -177.5 -82t-60.5 -137q0 -91 64.5 -145t175.5 -54q169 0 269.5 87.5t100.5 238.5v147zM829 154q-84 -91 -182 -136t-211 -45q-161 0 -256.5 84t-95.5 224q0 91 43.5 159t126.5 107q95 43 317 60q43 3 65 5q13 3 35 7q152 31 152 131q0 124 -61.5 177.5
t-202.5 53.5q-143 0 -219 -59.5t-82 -176.5l-121 1q4 159 117 251.5t305 92.5q191 0 290 -82t99 -240v-580q0 -66 16 -82t60 -16q14 0 24 0.5t21 1.5v-92q-23 -5 -46 -7.5t-42 -2.5q-76 0 -114 37t-38 110v17z" />
    <glyph glyph-name="ccedilla" unicode="&#xe7;" horiz-adv-x="1057" 
d="M868 367h123q-17 -183 -135 -288.5t-307 -105.5q-216 0 -340.5 148t-124.5 403q0 264 126.5 415t346.5 151q179 0 294.5 -100.5t124.5 -264.5h-118q-15 116 -97.5 186t-203.5 70q-159 0 -252.5 -120t-93.5 -326q0 -211 94.5 -334t253.5 -123q124 0 207 77t102 212z
M319 -420v78q77 -18 136 -26.5t102 -8.5q64 0 97.5 23t33.5 67q0 54 -35 79.5t-111 25.5q-18 0 -28 -0.5t-18 -1.5l-1 184h66v-111h14q108 0 165.5 -44t57.5 -128q0 -85 -58 -130.5t-167 -45.5q-58 0 -120.5 9.5t-133.5 29.5z" />
    <glyph glyph-name="eacute" unicode="&#xe9;" horiz-adv-x="1085" 
d="M209 508v-6q0 -195 94 -310.5t252 -115.5q125 0 209 67.5t102 184.5h123q-20 -162 -140 -259.5t-302 -97.5q-217 0 -340 147t-123 408q0 266 123.5 415t343.5 149q214 0 333.5 -142.5t119.5 -398.5v-41h-795zM211 607l666 -1q-8 176 -95.5 276.5t-232.5 100.5
q-146 0 -237.5 -102t-100.5 -274zM510 1200h-92l209 350h152z" />
    <glyph glyph-name="egrave" unicode="&#xe8;" horiz-adv-x="1085" 
d="M209 508v-6q0 -195 94 -310.5t252 -115.5q125 0 209 67.5t102 184.5h123q-20 -162 -140 -259.5t-302 -97.5q-217 0 -340 147t-123 408q0 266 123.5 415t343.5 149q214 0 333.5 -142.5t119.5 -398.5v-41h-795zM211 607l666 -1q-8 176 -95.5 276.5t-232.5 100.5
q-146 0 -237.5 -102t-100.5 -274zM576 1200l-269 350h152l209 -350h-92z" />
    <glyph glyph-name="ecircumflex" unicode="&#xea;" horiz-adv-x="1085" 
d="M209 508v-6q0 -195 94 -310.5t252 -115.5q125 0 209 67.5t102 184.5h123q-20 -162 -140 -259.5t-302 -97.5q-217 0 -340 147t-123 408q0 266 123.5 415t343.5 149q214 0 333.5 -142.5t119.5 -398.5v-41h-795zM211 607l666 -1q-8 176 -95.5 276.5t-232.5 100.5
q-146 0 -237.5 -102t-100.5 -274zM267 1200l200 350h152l200 -350h-92l-184 264l-184 -264h-92z" />
    <glyph glyph-name="edieresis" unicode="&#xeb;" horiz-adv-x="1085" 
d="M209 508v-6q0 -195 94 -310.5t252 -115.5q125 0 209 67.5t102 184.5h123q-20 -162 -140 -259.5t-302 -97.5q-217 0 -340 147t-123 408q0 266 123.5 415t343.5 149q214 0 333.5 -142.5t119.5 -398.5v-41h-795zM211 607l666 -1q-8 176 -95.5 276.5t-232.5 100.5
q-146 0 -237.5 -102t-100.5 -274zM633 1278v162h141v-162h-141zM312 1278v162h141v-162h-141z" />
    <glyph glyph-name="iacute" unicode="&#xed;" horiz-adv-x="422" 
d="M150 0v1063h122v-1063h-122zM178 1200h-92l209 350h152z" />
    <glyph glyph-name="igrave" unicode="&#xec;" horiz-adv-x="422" 
d="M150 0v1063h122v-1063h-122zM244 1200l-269 350h152l209 -350h-92z" />
    <glyph glyph-name="icircumflex" unicode="&#xee;" horiz-adv-x="422" 
d="M150 0v1063h122v-1063h-122zM-65 1200l200 350h152l200 -350h-92l-184 264l-184 -264h-92z" />
    <glyph glyph-name="idieresis" unicode="&#xef;" horiz-adv-x="422" 
d="M150 0v1063h122v-1063h-122zM301 1278v162h141v-162h-141zM-20 1278v162h141v-162h-141z" />
    <glyph glyph-name="ntilde" unicode="&#xf1;" horiz-adv-x="1104" 
d="M137 0v1063h119v-170q60 98 148 147.5t204 49.5q110 0 193 -39t127 -111q23 -37 33 -89.5t10 -172.5v-31v-647h-127v659q0 187 -57.5 253.5t-202.5 66.5q-149 0 -235.5 -94.5t-86.5 -257.5v-627h-125zM883 1464q-26 -90 -74.5 -136t-116.5 -46q-13 0 -29.5 2.5t-35.5 7.5
l-96 31q-13 4 -26 6t-28 2q-29 0 -53 -18.5t-39 -52.5h-80q22 88 72 135t123 47q16 0 29 -2t24 -6l96 -33q14 -5 28 -7.5t28 -2.5q33 0 56.5 18t39.5 55h82z" />
    <glyph glyph-name="oacute" unicode="&#xf3;" horiz-adv-x="1143" 
d="M211 530q0 -214 94.5 -332t265.5 -118q173 0 267 117t94 333t-94 333.5t-267 117.5q-171 0 -265.5 -118t-94.5 -333zM84 530q0 267 127.5 413.5t359.5 146.5q233 0 361.5 -146.5t128.5 -413.5q0 -265 -128 -411t-362 -146q-232 0 -359.5 145.5t-127.5 411.5zM538 1200
h-92l209 350h152z" />
    <glyph glyph-name="ograve" unicode="&#xf2;" horiz-adv-x="1143" 
d="M211 530q0 -214 94.5 -332t265.5 -118q173 0 267 117t94 333t-94 333.5t-267 117.5q-171 0 -265.5 -118t-94.5 -333zM84 530q0 267 127.5 413.5t359.5 146.5q233 0 361.5 -146.5t128.5 -413.5q0 -265 -128 -411t-362 -146q-232 0 -359.5 145.5t-127.5 411.5zM604 1200
l-269 350h152l209 -350h-92z" />
    <glyph glyph-name="ocircumflex" unicode="&#xf4;" horiz-adv-x="1143" 
d="M211 530q0 -214 94.5 -332t265.5 -118q173 0 267 117t94 333t-94 333.5t-267 117.5q-171 0 -265.5 -118t-94.5 -333zM84 530q0 267 127.5 413.5t359.5 146.5q233 0 361.5 -146.5t128.5 -413.5q0 -265 -128 -411t-362 -146q-232 0 -359.5 145.5t-127.5 411.5zM295 1200
l200 350h152l200 -350h-92l-184 264l-184 -264h-92z" />
    <glyph glyph-name="odieresis" unicode="&#xf6;" horiz-adv-x="1143" 
d="M211 530q0 -214 94.5 -332t265.5 -118q173 0 267 117t94 333t-94 333.5t-267 117.5q-171 0 -265.5 -118t-94.5 -333zM84 530q0 267 127.5 413.5t359.5 146.5q233 0 361.5 -146.5t128.5 -413.5q0 -265 -128 -411t-362 -146q-232 0 -359.5 145.5t-127.5 411.5zM661 1278
v162h141v-162h-141zM340 1278v162h141v-162h-141z" />
    <glyph glyph-name="otilde" unicode="&#xf5;" horiz-adv-x="1143" 
d="M211 530q0 -214 94.5 -332t265.5 -118q173 0 267 117t94 333t-94 333.5t-267 117.5q-171 0 -265.5 -118t-94.5 -333zM84 530q0 267 127.5 413.5t359.5 146.5q233 0 361.5 -146.5t128.5 -413.5q0 -265 -128 -411t-362 -146q-232 0 -359.5 145.5t-127.5 411.5zM860 1464
q-26 -90 -74.5 -136t-116.5 -46q-13 0 -29.5 2.5t-35.5 7.5l-96 31q-13 4 -26 6t-28 2q-29 0 -53 -18.5t-39 -52.5h-80q22 88 72 135t123 47q16 0 29 -2t24 -6l96 -33q14 -5 28 -7.5t28 -2.5q33 0 56.5 18t39.5 55h82z" />
    <glyph glyph-name="uacute" unicode="&#xfa;" horiz-adv-x="1108" 
d="M969 1063v-1063h-119v170q-61 -101 -148.5 -150t-207.5 -49q-180 0 -270.5 94.5t-90.5 282.5v715h123v-686q0 -159 60 -226t200 -67q153 0 241.5 93.5t88.5 256.5v629h123zM522 1200h-92l209 350h152z" />
    <glyph glyph-name="ugrave" unicode="&#xf9;" horiz-adv-x="1108" 
d="M969 1063v-1063h-119v170q-61 -101 -148.5 -150t-207.5 -49q-180 0 -270.5 94.5t-90.5 282.5v715h123v-686q0 -159 60 -226t200 -67q153 0 241.5 93.5t88.5 256.5v629h123zM588 1200l-269 350h152l209 -350h-92z" />
    <glyph glyph-name="ucircumflex" unicode="&#xfb;" horiz-adv-x="1108" 
d="M969 1063v-1063h-119v170q-61 -101 -148.5 -150t-207.5 -49q-180 0 -270.5 94.5t-90.5 282.5v715h123v-686q0 -159 60 -226t200 -67q153 0 241.5 93.5t88.5 256.5v629h123zM279 1200l200 350h152l200 -350h-92l-184 264l-184 -264h-92z" />
    <glyph glyph-name="udieresis" unicode="&#xfc;" horiz-adv-x="1108" 
d="M969 1063v-1063h-119v170q-61 -101 -148.5 -150t-207.5 -49q-180 0 -270.5 94.5t-90.5 282.5v715h123v-686q0 -159 60 -226t200 -67q153 0 241.5 93.5t88.5 256.5v629h123zM645 1278v162h141v-162h-141zM324 1278v162h141v-162h-141z" />
    <glyph glyph-name="dagger" unicode="&#x2020;" 
d="M449 -215v1153h-367v106h367v429h120v-429h373v-106h-373v-1153h-120z" />
    <glyph glyph-name="degree" unicode="&#xb0;" horiz-adv-x="674" 
d="M551 1176q0 87 -63 150t-150 63q-89 0 -151 -62t-62 -151t62.5 -151t150.5 -62t150.5 62t62.5 151zM338 1450q112 0 192 -80.5t80 -193.5q0 -114 -80 -193.5t-194 -79.5q-115 0 -194 79t-79 194q0 114 80.5 194t194.5 80z" />
    <glyph glyph-name="cent" unicode="&#xa2;" horiz-adv-x="1090" 
d="M367 133l269 840q-22 5 -41.5 7.5t-37.5 2.5q-167 0 -261.5 -118t-94.5 -328q0 -146 42.5 -249.5t123.5 -154.5zM877 367h120q-12 -180 -131 -288t-305 -108q-29 0 -63.5 4t-75.5 13l-88 -275h-103l97 305q-126 65 -191 194t-65 312q0 264 130.5 416t354.5 152
q27 0 55 -3.5t58 -9.5l75 234h103l-84 -264q101 -45 158 -128t63 -196h-119q-8 73 -42.5 126t-96.5 87l-272 -844q34 -6 61.5 -9t46.5 -3q127 0 212 77t102 208z" />
    <glyph glyph-name="sterling" unicode="&#xa3;" horiz-adv-x="1090" 
d="M170 -12l-74 114q100 70 153.5 165t53.5 204q0 43 -11 87.5t-32 88.5h-197v88h152q-59 107 -82.5 179.5t-23.5 138.5q0 163 125.5 272t318.5 109q211 0 331 -117.5t120 -323.5v-10h-127q-2 157 -88.5 244.5t-239.5 87.5q-138 0 -221.5 -75t-83.5 -198q0 -78 88 -241
q23 -43 35 -66h329v-88h-290q11 -42 16.5 -77t5.5 -64q0 -96 -46.5 -192.5t-139.5 -192.5q56 29 105 42t99 13q58 0 168 -43t162 -43q51 0 100 24t119 85l68 -95q-81 -75 -156 -111t-147 -36q-64 0 -191.5 48t-195.5 48q-53 0 -104 -16.5t-99 -48.5z" />
    <glyph glyph-name="section" unicode="&#xa7;" 
d="M381 545l268 -168q70 46 101.5 94.5t31.5 108.5q0 68 -38 120.5t-128 106.5l-239 147q-71 -28 -110.5 -79t-39.5 -113q0 -59 40.5 -115.5t113.5 -101.5zM170 156h121v-11q0 -106 55.5 -165.5t153.5 -59.5q91 0 144.5 46t53.5 124q0 105 -174 215q-29 19 -45 29l-172 110
q-100 65 -149 133.5t-49 145.5q0 99 49 172.5t149 124.5q-53 38 -78.5 88.5t-25.5 118.5q0 127 88 205.5t231 78.5q140 0 223.5 -85t83.5 -228v-22h-116q-2 108 -55.5 168.5t-147.5 60.5q-84 0 -134 -47t-50 -125q0 -58 36.5 -105t120.5 -96l203 -119q120 -70 172.5 -144
t52.5 -171q0 -88 -49 -158t-145 -121q53 -47 79.5 -103.5t26.5 -123.5q0 -125 -91.5 -203.5t-237.5 -78.5q-156 0 -240 83.5t-84 239.5v23z" />
    <glyph glyph-name="bullet" unicode="&#x2022;" horiz-adv-x="1208" 
d="M307 762q0 123 87 209t210 86q122 0 208.5 -86.5t86.5 -208.5t-87.5 -209.5t-209.5 -87.5q-123 0 -209 87t-86 210z" />
    <glyph glyph-name="paragraph" unicode="&#xb6;" 
d="M932 1415h-129v-1415h-70v1415h-192v-1415h-70v782q-175 8 -278 102.5t-103 245.5q0 157 108.5 253t286.5 96h447v-64z" />
    <glyph glyph-name="germandbls" unicode="&#xdf;" horiz-adv-x="1034" 
d="M137 0v1118q0 185 92.5 279t276.5 94q178 0 276.5 -98t98.5 -275q0 -105 -39.5 -178.5t-116.5 -112.5q115 -53 171 -151t56 -244q0 -209 -104 -332t-281 -123q-15 0 -40 2.5t-68 8.5v104q13 -2 27 -3t40 -1q145 0 222 87t77 251q0 174 -93.5 261t-278.5 87v94h28
q143 0 210 62t67 194q0 131 -64 199t-188 68q-133 0 -189.5 -67.5t-56.5 -231.5v-1092h-123z" />
    <glyph glyph-name="registered" unicode="&#xae;" horiz-adv-x="1706" 
d="M852 1077h-168v-313h168q145 0 199.5 36t54.5 126q0 78 -61.5 114.5t-192.5 36.5zM874 1155q180 0 264.5 -56.5t84.5 -176.5q0 -89 -55.5 -149t-147.5 -71l190 -393h-131l-182 377h-213v-377h-115v846h305zM1511 721q0 133 -49 252.5t-141 212.5q-95 95 -215 144.5
t-254 49.5q-133 0 -251.5 -49t-209.5 -141q-95 -97 -145.5 -218t-50.5 -251t50 -249.5t144 -213.5t213.5 -144.5t249.5 -50.5t251.5 51t217.5 146q93 92 141.5 209.5t48.5 251.5zM852 1452q149 0 282.5 -55t237.5 -160q103 -102 157 -235t54 -281q0 -150 -53.5 -280
t-157.5 -232q-107 -106 -241.5 -162.5t-278.5 -56.5q-145 0 -277 55.5t-237 161.5q-105 104 -160 236t-55 278q0 145 56 279t161 241q101 103 232 157t280 54z" />
    <glyph glyph-name="copyright" unicode="&#xa9;" horiz-adv-x="1706" 
d="M1081 918q-20 81 -79.5 126.5t-147.5 45.5q-126 0 -196 -97.5t-70 -273.5q0 -169 71.5 -267t194.5 -98q91 0 156 52.5t84 140.5h102q-11 -123 -108 -201t-240 -78q-173 0 -275 123.5t-102 333.5q0 205 107 328t282 123q132 0 222.5 -72t103.5 -186h-105zM1511 721
q0 133 -49 252.5t-141 212.5q-95 95 -215 144.5t-254 49.5q-133 0 -251.5 -49t-209.5 -141q-95 -97 -145.5 -218t-50.5 -251t50 -249.5t144 -213.5t213.5 -144.5t249.5 -50.5t251.5 51t217.5 146q93 92 141.5 209.5t48.5 251.5zM852 1452q149 0 282.5 -55t237.5 -160
q103 -102 157 -235t54 -281q0 -150 -53.5 -280t-157.5 -232q-107 -106 -241.5 -162.5t-278.5 -56.5q-145 0 -277 55.5t-237 161.5q-105 104 -160 236t-55 278q0 145 56 279t161 241q101 103 232 157t280 54z" />
    <glyph glyph-name="trademark" unicode="&#x2122;" horiz-adv-x="1706" 
d="M926 1454l174 -440l162 440h102v-530h-59v479l-181 -479h-49l-190 479v-479h-60v530h101zM694 1454v-51h-174v-479h-67v479h-179v51h420z" />
    <glyph glyph-name="acute" unicode="&#xb4;" 
d="M479 1200h-92l209 350h152z" />
    <glyph glyph-name="dieresis" unicode="&#xa8;" 
d="M602 1278v162h141v-162h-141zM281 1278v162h141v-162h-141z" />
    <glyph glyph-name="notequal" unicode="&#x2260;" horiz-adv-x="1706" 
d="M1280 1108l-217 -277h389v-79h-440l-219 -283h659v-82h-711l-254 -324l-61 48l215 276h-387v82h436l221 283h-657v79h709l254 326z" />
    <glyph glyph-name="AE" unicode="&#xc6;" horiz-adv-x="1978" 
d="M385 571h567v781h-241zM6 0l617 1473h1249v-121h-782v-537h708v-117h-708v-577h804v-121h-942v453h-614l-191 -453h-141z" />
    <glyph glyph-name="Oslash" unicode="&#xd8;" horiz-adv-x="1550" 
d="M338 319l799 926q-78 73 -168.5 110.5t-190.5 37.5q-246 0 -393 -178.5t-147 -479.5q0 -128 25 -232t75 -184zM154 -53l-82 65l178 203q-76 99 -114 228.5t-38 291.5q0 357 185 566.5t497 209.5q135 0 245 -41t198 -124l159 184l80 -66l-168 -196q82 -104 120 -231
t38 -302q0 -356 -182 -566t-490 -210q-144 0 -260.5 44t-204.5 132zM401 238q79 -80 172 -119t205 -39q244 0 390.5 178.5t146.5 480.5q0 131 -28 236t-85 190z" />
    <glyph glyph-name="infinity" unicode="&#x221e;" horiz-adv-x="1706" 
d="M889 557q54 -103 125 -154t162 -51q107 0 176 78t69 199q0 119 -63.5 196.5t-159.5 77.5q-87 0 -157.5 -77.5t-151.5 -268.5zM819 670q-52 102 -123.5 153t-163.5 51q-108 0 -176.5 -77.5t-68.5 -198.5q0 -118 63.5 -195t159.5 -77q88 0 158 76t151 268zM836 713
q66 139 146 206.5t177 67.5q130 0 219.5 -106t89.5 -265q0 -165 -80 -266.5t-210 -101.5q-94 0 -165.5 60.5t-142.5 201.5q-71 -139 -148.5 -203.5t-172.5 -64.5q-130 0 -220.5 106.5t-90.5 263.5q0 166 80 267.5t210 101.5q98 0 172.5 -64.5t135.5 -203.5z" />
    <glyph glyph-name="plusminus" unicode="&#xb1;" horiz-adv-x="1706" 
d="M1452 141v-82h-1198v82h1198zM893 1161v-354h559v-80h-559v-352h-80v352h-559v80h559v354h80z" />
    <glyph glyph-name="lessequal" unicode="&#x2264;" horiz-adv-x="1706" 
d="M1442 129v-80h-1178v80h1178zM1442 1083l-1043 -350l1043 -352v-88l-1178 405v70l1178 403v-88z" />
    <glyph glyph-name="greaterequal" unicode="&#x2265;" horiz-adv-x="1706" 
d="M1442 129v-80h-1178v80h1178zM1442 768v-70l-1178 -405v88l1043 352l-1043 350v88z" />
    <glyph glyph-name="yen" unicode="&#xa5;" horiz-adv-x="1147" 
d="M506 0v612h-500v88h447l-107 158h-340v90h279l-291 443h147l432 -662l433 662h149l-295 -443h281v-90h-338l-109 -158h447v-88h-500v-612h-135z" />
    <glyph glyph-name="mu" unicode="&#xb5;" horiz-adv-x="1094" 
d="M326 1063l-123 -590q-9 -43 -13 -77t-4 -64q0 -126 60 -192t174 -66q127 0 219.5 109t136.5 313l125 567h121l-166 -786q-2 -9 -5 -24q-20 -92 -20 -112q0 -31 17.5 -47t50.5 -16q9 0 18.5 0.5t20.5 1.5l-18 -96q-3 -1 -8 -2q-49 -11 -68 -11q-68 0 -100.5 31.5
t-32.5 95.5q0 7 0.5 16t3.5 29q-43 -83 -123.5 -127.5t-188.5 -44.5q-97 0 -169.5 45.5t-104.5 126.5l-119 -567h-121l316 1487h121z" />
    <glyph glyph-name="partialdiff" unicode="&#x2202;" 
d="M750 578q11 69 16.5 144.5t5.5 160.5q0 179 -38 266.5t-116 87.5q-45 0 -99.5 -73.5t-108.5 -73.5q-29 0 -48.5 18.5t-19.5 46.5q0 59 61 102t148 43q160 0 254 -147t94 -401q0 -335 -131.5 -557t-323.5 -222q-139 0 -224 105t-85 280q0 173 107 296.5t258 123.5
q97 0 158.5 -49t91.5 -151zM713 459q0 125 -47 190.5t-138 65.5q-117 0 -190.5 -125t-73.5 -330q0 -117 47.5 -179.5t137.5 -62.5q114 0 189 125.5t75 315.5z" />
    <glyph glyph-name="summation" unicode="&#x2211;" horiz-adv-x="1290" 
d="M45 1473h1208v-123h-1038l721 -787l-760 -835h1077v-121h-1243v127l752 829l-717 787v123z" />
    <glyph glyph-name="product" unicode="&#x220f;" horiz-adv-x="1491" 
d="M164 1473h1163v-1866h-135v1743h-893v-1743h-135v1866z" />
    <glyph glyph-name="pi" unicode="&#x3c0;" horiz-adv-x="1155" 
d="M1102 958h-182l-119 -565q-14 -62 -21.5 -111t-7.5 -77q0 -59 24.5 -83t84.5 -24q27 0 49.5 2.5t42.5 7.5l-25 -108q-29 -9 -52 -12.5t-44 -3.5q-92 0 -145.5 54t-53.5 148q0 47 11.5 122.5t44.5 228.5l88 421h-381l-203 -958h-121l201 958h-39q-55 0 -85.5 -32
t-41.5 -101h-121q25 135 85 186.5t206 51.5h829z" />
    <glyph glyph-name="integral" unicode="&#x222b;" horiz-adv-x="948" 
d="M401 578q0 498 86.5 733t268.5 235q65 0 106 -35t41 -90q0 -45 -27.5 -71.5t-74.5 -26.5q-77 0 -101.5 64.5t-33.5 64.5q-67 0 -93 -159t-26 -687q0 -509 -85.5 -743t-268.5 -234q-64 0 -106 34.5t-42 84.5q0 48 28.5 77.5t76.5 29.5q33 0 56 -13.5t40 -42.5
q8 -14 12.5 -44.5t24.5 -30.5q66 0 92 165t26 689z" />
    <glyph glyph-name="ordfeminine" unicode="&#xaa;" horiz-adv-x="823" 
d="M616 1118q-39 -13 -101 -20.5t-179 -12.5q-88 -21 -133 -61t-45 -96q0 -65 48.5 -102.5t131.5 -37.5q128 0 203 61.5t75 166.5v102zM623 838q-62 -64 -136 -95.5t-159 -31.5q-122 0 -193.5 58.5t-71.5 156.5q0 63 32.5 110.5t94.5 75.5q73 30 243 42q29 2 44 3q10 2 29 6
q112 21 112 90q0 87 -46 124.5t-152 37.5q-108 0 -164.5 -41.5t-61.5 -122.5h-91q3 111 88 175.5t229 64.5q143 0 217 -56.5t74 -166.5v-408q0 -45 12 -56t45 -11q10 0 18.5 0.5t16.5 0.5v-64q-16 -4 -31 -5.5t-37 -1.5q-56 0 -84 25.5t-28 76.5v13z" />
    <glyph glyph-name="ordmasculine" unicode="&#xba;" horiz-adv-x="858" 
d="M158 1100q0 -150 71 -233t199 -83q130 0 200 82t70 234t-70 233.5t-200 81.5q-129 0 -199.5 -82.5t-70.5 -232.5zM63 1100q0 187 95.5 289t269.5 102q176 0 272.5 -102.5t96.5 -288.5t-97 -287.5t-272 -101.5q-174 0 -269.5 101.5t-95.5 287.5z" />
    <glyph glyph-name="Omega" unicode="&#x3a9;" horiz-adv-x="1585" 
d="M1452 121v-121h-573v102q218 136 328 307.5t110 376.5q0 269 -146.5 438t-377.5 169t-378 -169t-147 -438q0 -205 110 -376.5t329 -307.5v-102h-572v121h354q-183 132 -271.5 295.5t-88.5 369.5q0 317 188.5 522t475.5 205q286 0 474.5 -205t188.5 -522
q0 -206 -88.5 -369.5t-271.5 -295.5h356z" />
    <glyph glyph-name="ae" unicode="&#xe6;" horiz-adv-x="1808" 
d="M797 561q-69 -31 -246 -53q-85 -11 -129 -19q-114 -19 -169.5 -72t-55.5 -141q0 -92 58.5 -144t164.5 -52q181 0 279 84t98 239v158zM924 606h667q-1 177 -88 276t-241 99q-146 0 -237.5 -101.5t-100.5 -273.5zM858 213q-71 -117 -184 -178.5t-258 -61.5
q-159 0 -253.5 83.5t-94.5 222.5q0 83 37.5 149.5t105.5 103.5q97 53 330 78q15 2 22 2q167 19 201.5 42t34.5 100q0 120 -62 173.5t-200 53.5q-142 0 -217.5 -60t-75.5 -173v-5h-123q0 163 108 255t301 92q146 0 240.5 -45.5t136.5 -135.5q71 91 158.5 136t194.5 45
q220 0 340 -138t120 -391q0 -8 -1 -26t-1 -27h-798v-19q0 -190 91.5 -299.5t250.5 -109.5q134 0 219 65.5t102 182.5h125q-20 -158 -142 -256.5t-298 -98.5q-148 0 -253 61.5t-157 178.5z" />
    <glyph glyph-name="oslash" unicode="&#xf8;" horiz-adv-x="1143" 
d="M324 182q46 -51 108.5 -76.5t140.5 -25.5q173 0 267 117t94 333q0 96 -18 168t-54 125zM281 231l540 650q-49 50 -109.5 75t-136.5 25q-175 0 -269.5 -117t-94.5 -336q0 -89 17.5 -163t52.5 -134zM92 8l107 127q-59 78 -87 178.5t-28 237.5q0 246 133 392.5t356 146.5
q104 0 183.5 -28t144.5 -87l100 119l52 -43l-107 -127q59 -74 87 -169t28 -220q0 -270 -127 -416t-361 -146q-102 0 -184.5 28.5t-144.5 84.5l-101 -121z" />
    <glyph glyph-name="questiondown" unicode="&#xbf;" horiz-adv-x="1006" 
d="M455 1288v185h135v-185h-135zM590 1110v-123q0 -79 -27.5 -139.5t-120.5 -155.5q-23 -24 -69 -68q-164 -158 -164 -278q0 -126 76 -197t211 -71q157 0 237.5 85t83.5 252l133 1q-6 -223 -124 -340t-337 -117q-193 0 -307 101.5t-114 273.5q0 93 35.5 168t114.5 148
q14 13 40 36q197 181 197 315v109h135z" />
    <glyph glyph-name="exclamdown" unicode="&#xa1;" horiz-adv-x="639" 
d="M360 1110l27 -575v-535h-135v535l29 575h79zM387 1473v-185h-135v185h135z" />
    <glyph glyph-name="logicalnot" unicode="&#xac;" horiz-adv-x="1706" 
d="M1452 856v-502h-78v420h-1120v82h1198z" />
    <glyph glyph-name="radical" unicode="&#x221a;" horiz-adv-x="1264" 
d="M1264 1626v-61h-129l-596 -1606h-31l-330 907l-110 -39l-15 50l230 79l278 -759l531 1429h172z" />
    <glyph glyph-name="florin" unicode="&#x192;" horiz-adv-x="1090" 
d="M473 799h-227v108h246l32 148q55 257 125.5 345.5t200.5 88.5q35 0 71.5 -9t79.5 -28l-20 -106q-33 14 -64 21t-61 7q-77 0 -117.5 -55.5t-83.5 -265.5l-28 -146h227v-108h-250l-147 -770q-48 -244 -121.5 -338t-206.5 -94q-37 0 -74 8.5t-78 25.5l21 109
q42 -16 71.5 -23.5t53.5 -7.5q77 0 118.5 59t82.5 265z" />
    <glyph glyph-name="approxequal" unicode="&#x2248;" horiz-adv-x="1706" 
d="M1530 485q-106 -74 -202 -110.5t-185 -36.5q-106 0 -295.5 70.5t-282.5 70.5q-83 0 -171 -35.5t-216 -124.5v93q105 73 201 109t186 36q106 0 295.5 -69.5t282.5 -69.5q83 0 171 35.5t216 124.5v-93zM1530 809q-105 -73 -200.5 -109t-186.5 -36q-106 0 -295.5 69.5
t-282.5 69.5q-83 0 -171 -35.5t-216 -124.5v92q106 75 202 111.5t185 36.5q106 0 295.5 -71t282.5 -71q81 0 168.5 36t218.5 126v-94z" />
    <glyph glyph-name="Delta" unicode="&#x2206;" horiz-adv-x="1335" 
d="M1155 121l-487 1233l-490 -1233h977zM754 1473l592 -1473h-1358l594 1473h172z" />
    <glyph glyph-name="guillemotleft" unicode="&#xab;" horiz-adv-x="834" 
d="M737 834v-134l-211 -163l211 -162v-133l-291 219v153zM369 834v-134l-209 -163l209 -162v-133l-291 219v153z" />
    <glyph glyph-name="guillemotright" unicode="&#xbb;" horiz-adv-x="834" 
d="M465 242v133l211 162l-211 163v134l291 -220v-153zM98 242v133l209 162l-209 163v134l291 -220v-153z" />
    <glyph glyph-name="ellipsis" unicode="&#x2026;" horiz-adv-x="2048" 
d="M275 0v182h135v-182h-135zM957 0v182h135v-182h-135zM1641 0v182h135v-182h-135z" />
    <glyph glyph-name="nonbreakingspace" unicode="&#xa0;" horiz-adv-x="1090" 
 />
    <glyph glyph-name="Agrave" unicode="&#xc0;" horiz-adv-x="1262" 
d="M344 571h571l-286 758zM-10 0l559 1473h162l559 -1473h-142l-167 453h-660l-170 -453h-141zM686 1620l-269 350h152l209 -350h-92z" />
    <glyph glyph-name="Atilde" unicode="&#xc3;" horiz-adv-x="1262" 
d="M344 571h571l-286 758zM-10 0l559 1473h162l559 -1473h-142l-167 453h-660l-170 -453h-141zM942 1884q-26 -90 -74.5 -136t-116.5 -46q-13 0 -29.5 2.5t-35.5 7.5l-96 31q-13 4 -26 6t-28 2q-29 0 -53 -18.5t-39 -52.5h-80q22 88 72 135t123 47q16 0 29 -2t24 -6l96 -33
q14 -5 28 -7.5t28 -2.5q33 0 56.5 18t39.5 55h82z" />
    <glyph glyph-name="Otilde" unicode="&#xd5;" horiz-adv-x="1550" 
d="M240 735q0 -302 144 -478.5t390 -176.5q247 0 392 176t145 479q0 304 -145 481t-392 177q-243 0 -388.5 -178.5t-145.5 -479.5zM100 735q0 358 182 567t492 209q311 0 493.5 -209t182.5 -567t-182.5 -567t-493.5 -209q-310 0 -492 209t-182 567zM1065 1884
q-26 -90 -74.5 -136t-116.5 -46q-13 0 -29.5 2.5t-35.5 7.5l-96 31q-13 4 -26 6t-28 2q-29 0 -53 -18.5t-39 -52.5h-80q22 88 72 135t123 47q16 0 29 -2t24 -6l96 -33q14 -5 28 -7.5t28 -2.5q33 0 56.5 18t39.5 55h82z" />
    <glyph glyph-name="OE" unicode="&#x152;" horiz-adv-x="2277" 
d="M1202 287v895q-80 104 -184 156.5t-232 52.5q-249 0 -396.5 -177t-147.5 -479q0 -303 146.5 -479t395.5 -176q127 0 230 51t188 156zM1204 156q-91 -99 -198.5 -147t-237.5 -48q-302 0 -484 210t-182 564q0 355 181.5 565.5t482.5 210.5q140 0 246 -47.5t192 -148.5v158
h963v-121h-830v-537h756v-117h-756v-577h854v-121h-987v156z" />
    <glyph glyph-name="oe" unicode="&#x153;" horiz-adv-x="1915" 
d="M209 518q0 -209 91 -323.5t257 -114.5q164 0 257 118.5t93 329.5q0 213 -93 333t-257 120q-169 0 -258.5 -119t-89.5 -344zM1042 606l664 1q-3 175 -91 274.5t-241 99.5q-142 0 -230 -99t-102 -276zM971 229q-53 -125 -159 -191.5t-255 -66.5q-226 0 -349.5 143
t-123.5 404q0 273 122 422.5t345 149.5q149 0 256.5 -67.5t163.5 -195.5q56 127 160 195t243 68q222 0 337.5 -138t115.5 -403v-41h-787v-16q0 -191 91 -301.5t247 -110.5q131 0 215 65t103 181h121q-27 -167 -144.5 -261t-300.5 -94q-143 0 -245 66t-156 192z" />
    <glyph glyph-name="endash" unicode="&#x2013;" 
d="M0 492v92h1024v-92h-1024z" />
    <glyph glyph-name="emdash" unicode="&#x2014;" horiz-adv-x="2048" 
d="M0 492v92h2048v-92h-2048z" />
    <glyph glyph-name="quotedblleft" unicode="&#x201c;" horiz-adv-x="809" 
d="M317 1511v-77q-33 -21 -48 -52.5t-15 -83.5v-71h63v-183h-137v246q0 52 7 82.5t22 54.5q16 27 42.5 47.5t65.5 36.5zM627 1511v-77q-34 -21 -49 -52.5t-15 -83.5v-71h64v-183h-135v246q0 92 30.5 142t104.5 79z" />
    <glyph glyph-name="quotedblright" unicode="&#x201d;" horiz-adv-x="809" 
d="M492 1004v79q34 21 48.5 51.5t14.5 82.5v71h-63v185h135v-248q0 -92 -31 -142t-104 -79zM180 1004v79q34 21 49 51.5t15 82.5v71h-64v185h137v-248q0 -91 -31.5 -141.5t-105.5 -79.5z" />
    <glyph glyph-name="quoteleft" unicode="&#x2018;" horiz-adv-x="498" 
d="M317 1511v-77q-34 -24 -48.5 -55t-14.5 -81v-71h63v-183h-137v246q0 90 32 140.5t105 80.5z" />
    <glyph glyph-name="quoteright" unicode="&#x2019;" horiz-adv-x="498" 
d="M180 1004v79q35 24 49.5 54.5t14.5 79.5v71h-64v185h137v-248q0 -90 -31.5 -140.5t-105.5 -80.5z" />
    <glyph glyph-name="divide" unicode="&#xf7;" horiz-adv-x="1706" 
d="M854 365q41 0 69.5 -29.5t28.5 -71.5q0 -40 -28.5 -69t-69.5 -29t-69.5 28.5t-28.5 69.5t29 71t69 30zM1452 651v-82h-1198v82h1198zM854 1055q41 0 69.5 -28.5t28.5 -70.5q0 -40 -28.5 -70t-69.5 -30t-69.5 29.5t-28.5 70.5t28.5 70t69.5 29z" />
    <glyph glyph-name="lozenge" unicode="&#x25ca;" horiz-adv-x="1012" 
d="M506 1409l-385 -817l385 -825l385 825zM506 1653l500 -1061l-500 -1069l-500 1069z" />
    <glyph glyph-name="ydieresis" unicode="&#xff;" horiz-adv-x="954" 
d="M467 -207q-46 -124 -111.5 -176.5t-173.5 -52.5q-26 0 -46 2.5t-40 8.5v111q34 -5 53.5 -7.5t30.5 -2.5q67 0 105.5 35t79.5 144l49 133l-414 1075h131l344 -907l336 907h127zM567 1278v162h141v-162h-141zM246 1278v162h141v-162h-141z" />
    <glyph glyph-name="Ydieresis" unicode="&#x178;" horiz-adv-x="1147" 
d="M506 0v647l-520 826h155l432 -697l433 697h155l-520 -826v-647h-135zM663 1698v162h141v-162h-141zM342 1698v162h141v-162h-141z" />
    <glyph glyph-name="fraction" unicode="&#x2215;" horiz-adv-x="342" 
d="M-342 -41l920 1473h104l-920 -1473h-104z" />
    <glyph glyph-name="currency" unicode="&#xa4;" horiz-adv-x="1241" 
d="M954 887q0 137 -96.5 233.5t-234.5 96.5t-235 -97t-97 -233q0 -138 97 -235t235 -97q137 0 234 97t97 235zM358 1204q60 48 125 71t138 23q72 0 138 -23.5t126 -70.5l205 207l59 -59l-207 -205q45 -58 68.5 -124.5t23.5 -137.5q0 -73 -23 -138.5t-69 -123.5l207 -205
l-59 -60l-205 207q-58 -45 -125 -68.5t-139 -23.5q-74 0 -139 23t-124 69l-206 -207l-58 60l207 205q-45 57 -68.5 123.5t-23.5 138.5q0 71 23.5 137.5t68.5 124.5l-207 205l58 59z" />
    <glyph glyph-name="guilsinglleft" unicode="&#x2039;" horiz-adv-x="467" 
d="M369 834v-134l-209 -163l209 -162v-133l-291 219v153z" />
    <glyph glyph-name="guilsinglright" unicode="&#x203a;" horiz-adv-x="467" 
d="M98 242v133l209 162l-209 163v134l291 -220v-153z" />
    <glyph glyph-name="fi" unicode="&#xf001;" horiz-adv-x="958" 
d="M684 0v1063h125v-1063h-125zM684 1288v185h125v-185h-125zM197 0v963h-156v100h156v194q0 120 60 175t192 55q14 0 29.5 -1.5t33.5 -5.5v-110q-4 0 -12 1q-40 3 -56 3q-69 0 -97 -28.5t-28 -100.5v-182h193v-100h-193v-963h-122z" />
    <glyph glyph-name="fl" unicode="&#xf002;" horiz-adv-x="958" 
d="M684 0v1473h125v-1473h-125zM197 0v963h-156v100h156v194q0 120 60 175t192 55q14 0 29.5 -1.5t33.5 -5.5v-110q-4 0 -12 1q-40 3 -56 3q-69 0 -97 -28.5t-28 -100.5v-182h193v-100h-193v-963h-122z" />
    <glyph glyph-name="daggerdbl" unicode="&#x2021;" 
d="M446 -217v428h-376v108h376v617h-376v106h376v431h121v-431h387v-106h-387v-617h387v-108h-387v-428h-121z" />
    <glyph glyph-name="periodcentered" unicode="&#xb7;" horiz-adv-x="545" 
d="M190 696q0 35 24 58.5t58 23.5t58 -24t24 -58q0 -33 -24 -57.5t-58 -24.5q-33 0 -57.5 24.5t-24.5 57.5z" />
    <glyph glyph-name="quotesinglbase" unicode="&#x201a;" horiz-adv-x="498" 
d="M180 -285v78q34 24 49 55t15 80v72h-64v182h137v-245q0 -90 -31.5 -141t-105.5 -81z" />
    <glyph glyph-name="quotedblbase" unicode="&#x201e;" horiz-adv-x="809" 
d="M492 -285v78q33 21 48 52.5t15 82.5v72h-63v182h135v-245q0 -92 -31 -142t-104 -80zM180 -285v78q34 21 49 52.5t15 82.5v72h-64v182h137v-245q0 -91 -31.5 -141.5t-105.5 -80.5z" />
    <glyph glyph-name="perthousand" unicode="&#x2030;" horiz-adv-x="2494" 
d="M1860 340q0 -93 63.5 -157t155.5 -64t156.5 64.5t64.5 156.5t-64 155.5t-157 63.5t-156 -63t-63 -156zM1741 340q0 143 97.5 240.5t240.5 97.5t241.5 -97.5t98.5 -240.5q0 -142 -99 -241t-241 -99t-240 98.5t-98 241.5zM1024 340q0 -92 64.5 -156.5t156.5 -64.5t155.5 64
t63.5 157t-63 156t-156 63t-157 -63.5t-64 -155.5zM905 340q0 143 98.5 240.5t241.5 97.5t240.5 -97.5t97.5 -240.5t-98 -241.5t-240 -98.5t-241 99t-99 241zM317 -41l920 1473h104l-919 -1473h-105zM193 1051q0 -92 64 -156t157 -64q92 0 155.5 63.5t63.5 156.5t-63.5 157
t-155.5 64q-93 0 -157 -64.5t-64 -156.5zM76 1053q0 143 97.5 240.5t240.5 97.5t241.5 -98t98.5 -240q0 -143 -99 -241.5t-241 -98.5t-240 98.5t-98 241.5z" />
    <glyph glyph-name="Acircumflex" unicode="&#xc2;" horiz-adv-x="1262" 
d="M344 571h571l-286 758zM-10 0l559 1473h162l559 -1473h-142l-167 453h-660l-170 -453h-141zM377 1620l200 350h152l200 -350h-92l-184 264l-184 -264h-92z" />
    <glyph glyph-name="Ecircumflex" unicode="&#xca;" horiz-adv-x="1239" 
d="M164 0v1473h964v-121h-829v-537h758v-117h-758v-577h854v-121h-989zM383 1620l200 350h152l200 -350h-92l-184 264l-184 -264h-92z" />
    <glyph glyph-name="Aacute" unicode="&#xc1;" horiz-adv-x="1262" 
d="M344 571h571l-286 758zM-10 0l559 1473h162l559 -1473h-142l-167 453h-660l-170 -453h-141zM620 1620h-92l209 350h152z" />
    <glyph glyph-name="Edieresis" unicode="&#xcb;" horiz-adv-x="1239" 
d="M164 0v1473h964v-121h-829v-537h758v-117h-758v-577h854v-121h-989zM749 1698v162h141v-162h-141zM428 1698v162h141v-162h-141z" />
    <glyph glyph-name="Egrave" unicode="&#xc8;" horiz-adv-x="1239" 
d="M164 0v1473h964v-121h-829v-537h758v-117h-758v-577h854v-121h-989zM692 1620l-269 350h152l209 -350h-92z" />
    <glyph glyph-name="Iacute" unicode="&#xcd;" horiz-adv-x="485" 
d="M172 0v1473h139v-1473h-139zM211 1620h-92l209 350h152z" />
    <glyph glyph-name="Icircumflex" unicode="&#xce;" horiz-adv-x="485" 
d="M172 0v1473h139v-1473h-139zM-32 1620l200 350h152l200 -350h-92l-184 264l-184 -264h-92z" />
    <glyph glyph-name="Idieresis" unicode="&#xcf;" horiz-adv-x="485" 
d="M172 0v1473h139v-1473h-139zM334 1698v162h141v-162h-141zM13 1698v162h141v-162h-141z" />
    <glyph glyph-name="Igrave" unicode="&#xcc;" horiz-adv-x="485" 
d="M172 0v1473h139v-1473h-139zM277 1620l-269 350h152l209 -350h-92z" />
    <glyph glyph-name="Oacute" unicode="&#xd3;" horiz-adv-x="1550" 
d="M240 735q0 -302 144 -478.5t390 -176.5q247 0 392 176t145 479q0 304 -145 481t-392 177q-243 0 -388.5 -178.5t-145.5 -479.5zM100 735q0 358 182 567t492 209q311 0 493.5 -209t182.5 -567t-182.5 -567t-493.5 -209q-310 0 -492 209t-182 567zM743 1620h-92l209 350
h152z" />
    <glyph glyph-name="Ocircumflex" unicode="&#xd4;" horiz-adv-x="1550" 
d="M240 735q0 -302 144 -478.5t390 -176.5q247 0 392 176t145 479q0 304 -145 481t-392 177q-243 0 -388.5 -178.5t-145.5 -479.5zM100 735q0 358 182 567t492 209q311 0 493.5 -209t182.5 -567t-182.5 -567t-493.5 -209q-310 0 -492 209t-182 567zM500 1620l200 350h152
l200 -350h-92l-184 264l-184 -264h-92z" />
    <glyph glyph-name="apple" unicode="&#xf000;" horiz-adv-x="1618" 
d="M836 1216q-1 6 -1.5 14t-0.5 23q0 124 95 229.5t236 131.5q1 -10 1.5 -23t0.5 -39q0 -131 -103.5 -234.5t-203.5 -103.5h-8q-3 0 -7.5 1t-8.5 1zM1505 403q-114 -247 -205 -342.5t-204 -95.5q-50 0 -131.5 33t-122.5 33q-45 0 -131 -33t-127 -33q-64 0 -128.5 44
t-129.5 132q-102 140 -157.5 295.5t-55.5 300.5q0 219 125 356.5t323 137.5q68 0 155 -34t124 -34q34 0 121.5 35t152.5 35q110 0 198 -40t161 -124q-102 -65 -151.5 -145.5t-49.5 -182.5q0 -113 60 -200t173 -138z" />
    <glyph glyph-name="Ograve" unicode="&#xd2;" horiz-adv-x="1550" 
d="M240 735q0 -302 144 -478.5t390 -176.5q247 0 392 176t145 479q0 304 -145 481t-392 177q-243 0 -388.5 -178.5t-145.5 -479.5zM100 735q0 358 182 567t492 209q311 0 493.5 -209t182.5 -567t-182.5 -567t-493.5 -209q-310 0 -492 209t-182 567zM809 1620l-269 350h152
l209 -350h-92z" />
    <glyph glyph-name="Uacute" unicode="&#xda;" horiz-adv-x="1427" 
d="M154 1473h135v-928q0 -245 100.5 -355t323.5 -110t324.5 110t101.5 355v928h135v-947q0 -281 -141 -424t-420 -143q-278 0 -418.5 142.5t-140.5 424.5v947zM682 1620h-92l209 350h152z" />
    <glyph glyph-name="Ucircumflex" unicode="&#xdb;" horiz-adv-x="1427" 
d="M154 1473h135v-928q0 -245 100.5 -355t323.5 -110t324.5 110t101.5 355v928h135v-947q0 -281 -141 -424t-420 -143q-278 0 -418.5 142.5t-140.5 424.5v947zM439 1620l200 350h152l200 -350h-92l-184 264l-184 -264h-92z" />
    <glyph glyph-name="Ugrave" unicode="&#xd9;" horiz-adv-x="1427" 
d="M154 1473h135v-928q0 -245 100.5 -355t323.5 -110t324.5 110t101.5 355v928h135v-947q0 -281 -141 -424t-420 -143q-278 0 -418.5 142.5t-140.5 424.5v947zM748 1620l-269 350h152l209 -350h-92z" />
    <glyph glyph-name="dotlessi" unicode="&#x131;" horiz-adv-x="422" 
d="M150 0v1063h122v-1063h-122z" />
    <glyph glyph-name="circumflex" unicode="&#x2c6;" 
d="M236 1200l200 350h152l200 -350h-92l-184 264l-184 -264h-92z" />
    <glyph glyph-name="tilde" unicode="&#x2dc;" 
d="M801 1464q-26 -90 -74.5 -136t-116.5 -46q-13 0 -29.5 2.5t-35.5 7.5l-96 31q-13 4 -26 6t-28 2q-29 0 -53 -18.5t-39 -52.5h-80q22 88 72 135t123 47q16 0 29 -2t24 -6l96 -33q14 -5 28 -7.5t28 -2.5q33 0 56.5 18t39.5 55h82z" />
    <glyph glyph-name="macron" unicode="&#xaf;" 
d="M256 1300v117h512v-117h-512z" />
    <glyph glyph-name="breve" unicode="&#x2d8;" 
d="M238 1505h79q6 -75 53 -110t142 -35q96 0 140.5 34t52.5 111h81q-9 -136 -74.5 -199t-199.5 -63q-132 0 -198.5 63.5t-75.5 198.5z" />
    <glyph glyph-name="dotaccent" unicode="&#x2d9;" 
d="M436 1272v174h152v-174h-152z" />
    <glyph glyph-name="ring" unicode="&#x2da;" 
d="M362 1421q0 -63 43.5 -106t106.5 -43q62 0 106 43.5t44 105.5q0 64 -43.5 108t-106.5 44t-106.5 -44t-43.5 -108zM272 1423q0 102 69.5 171t170.5 69q102 0 172 -69.5t70 -170.5t-70.5 -171t-171.5 -70t-170.5 70t-69.5 171z" />
    <glyph glyph-name="cedilla" unicode="&#xb8;" 
d="M303 -420v78q77 -18 136 -26.5t102 -8.5q64 0 97.5 23t33.5 67q0 54 -35 79.5t-111 25.5q-18 0 -28 -0.5t-18 -1.5l-1 184h66v-111h14q108 0 165.5 -44t57.5 -128q0 -85 -58 -130.5t-167 -45.5q-58 0 -120.5 9.5t-133.5 29.5z" />
    <glyph glyph-name="hungarumlaut" unicode="&#x2dd;" 
d="M571 1200l168 350h133l-227 -350h-74zM336 1200l149 350h133l-208 -350h-74z" />
    <glyph glyph-name="ogonek" unicode="&#x2db;" 
d="M612 0q-72 -63 -108.5 -122.5t-36.5 -113.5q0 -46 25.5 -66t85.5 -20h75v-104h-73q-108 0 -159.5 40t-51.5 122q0 60 46.5 127t137.5 137h59z" />
    <glyph glyph-name="caron" unicode="&#x2c7;" 
d="M236 1550h92l184 -264l184 264h92l-200 -350h-152z" />
    <glyph glyph-name="Lslash" unicode="&#x141;" horiz-adv-x="1065" 
d="M164 0v637l-139 -94l-56 82l195 135v713h139v-633l350 245l56 -84l-406 -284v-596h752v-121h-891z" />
    <glyph glyph-name="lslash" unicode="&#x142;" horiz-adv-x="422" 
d="M150 0v655l-121 -88l-56 76l177 129v701h122v-627l121 90l56 -76l-177 -131v-729h-122z" />
    <glyph glyph-name="Scaron" unicode="&#x160;" horiz-adv-x="1241" 
d="M94 446h135q2 -174 110 -270t304 -96q172 0 270.5 77.5t98.5 213.5q0 126 -69 192t-275 119l-140 35q-226 58 -312.5 147.5t-86.5 251.5q0 179 131 287t350 108q232 0 362.5 -118t133.5 -330h-137q-3 157 -98 242.5t-267 85.5q-162 0 -251 -73t-89 -206q0 -101 58 -159.5
t192 -92.5l172 -43q255 -64 358 -162t103 -270q0 -198 -135.5 -312t-370.5 -114q-263 0 -405 123.5t-142 353.5v10zM345 1970h92l184 -264l184 264h92l-200 -350h-152z" />
    <glyph glyph-name="scaron" unicode="&#x161;" horiz-adv-x="1006" 
d="M92 331h123q5 -110 83.5 -178.5t201.5 -68.5q133 0 209.5 52.5t76.5 142.5q0 129 -283 197q-4 1 -5 1q-228 55 -305.5 121t-77.5 184q0 137 101.5 222.5t264.5 85.5q179 0 285 -89.5t117 -248.5h-125q-8 108 -81 168.5t-198 60.5q-109 0 -174 -50t-65 -132
q0 -142 290 -210q38 -9 57 -13q182 -45 253 -112t71 -188q0 -135 -111.5 -220t-293.5 -85q-185 0 -297 98t-117 262zM228 1550h92l184 -264l184 264h92l-200 -350h-152z" />
    <glyph glyph-name="Zcaron" unicode="&#x17d;" horiz-adv-x="1165" 
d="M35 0v125l911 1227h-842v121h1010v-117l-917 -1233h931v-123h-1093zM308 1970h92l184 -264l184 264h92l-200 -350h-152z" />
    <glyph glyph-name="zcaron" unicode="&#x17e;" horiz-adv-x="950" 
d="M41 0v102l688 859h-653v102h801v-109l-678 -845h708v-109h-866zM199 1550h92l184 -264l184 264h92l-200 -350h-152z" />
    <glyph glyph-name="brokenbar" unicode="&#xa6;" 
d="M557 408v-758h-90v758h90zM557 1432v-758h-90v758h90z" />
    <glyph glyph-name="Eth" unicode="&#xd0;" horiz-adv-x="1436" 
d="M520 1473h101q181 0 271 -18.5t157 -61.5q135 -86 206.5 -253.5t71.5 -400.5q0 -252 -77.5 -422.5t-229.5 -253.5q-64 -34 -157.5 -48.5t-284.5 -14.5h-406v723h-162v100h162v650h348zM309 121h285q166 0 242.5 12.5t128.5 42.5q112 67 167.5 205.5t55.5 353.5
q0 207 -53 344.5t-158 206.5q-54 36 -132 51t-265 15h-33h-238v-529h441v-100h-441v-602z" />
    <glyph glyph-name="eth" unicode="&#xf0;" horiz-adv-x="1143" 
d="M764 1004q-37 54 -91 107t-128 106l-277 -144l-30 70l229 123q-53 33 -116 62.5t-138 55.5l29 99q69 -21 155 -60t191 -98l254 135l35 -67l-222 -119q202 -157 304 -347.5t102 -408.5q0 -263 -127 -404t-363 -141q-233 0 -360 139.5t-127 397.5q0 247 125.5 394
t333.5 147q61 0 114.5 -11.5t106.5 -35.5zM211 518q0 -208 94 -322t266 -114t266.5 114t94.5 322q0 209 -94 322.5t-267 113.5q-172 0 -266 -113.5t-94 -322.5z" />
    <glyph glyph-name="Yacute" unicode="&#xdd;" horiz-adv-x="1147" 
d="M506 0v647l-520 826h155l432 -697l433 697h155l-520 -826v-647h-135zM540 1620h-92l209 350h152z" />
    <glyph glyph-name="yacute" unicode="&#xfd;" horiz-adv-x="954" 
d="M467 -207q-46 -124 -111.5 -176.5t-173.5 -52.5q-26 0 -46 2.5t-40 8.5v111q34 -5 53.5 -7.5t30.5 -2.5q67 0 105.5 35t79.5 144l49 133l-414 1075h131l344 -907l336 907h127zM444 1200h-92l209 350h152z" />
    <glyph glyph-name="Thorn" unicode="&#xde;" horiz-adv-x="1237" 
d="M299 494h315q218 0 313 70t95 229q0 149 -85 219.5t-265 70.5h-373v-589zM164 0v1473h135v-269h379q241 0 362 -104t121 -309q0 -213 -135.5 -316.5t-413.5 -103.5h-313v-371h-135z" />
    <glyph glyph-name="thorn" unicode="&#xfe;" horiz-adv-x="1188" 
d="M141 -428v1901h125v-601q60 111 151 164.5t220 53.5q219 0 345 -150t126 -410q0 -261 -127.5 -410t-349.5 -149q-123 0 -213 53t-152 160v-612h-125zM260 530q0 -211 95 -330.5t263 -119.5q174 0 267.5 117t93.5 333q0 215 -94.5 333t-266.5 118t-265 -117t-93 -334z" />
    <glyph glyph-name="minus" unicode="&#x2212;" horiz-adv-x="1706" 
d="M1452 651v-82h-1198v82h1198z" />
    <glyph glyph-name="multiply" unicode="&#xd7;" horiz-adv-x="1706" 
d="M854 668l487 487l58 -57l-488 -488l488 -487l-58 -57l-487 487l-487 -487l-58 57l488 487l-488 488l58 57z" />
    <glyph glyph-name="onesuperior" unicode="&#xb9;" horiz-adv-x="719" 
d="M360 557v686q-30 -26 -82 -37.5t-139 -11.5h-12v53h4q118 0 176 40.5t64 127.5h78v-858h-89z" />
    <glyph glyph-name="twosuperior" unicode="&#xb2;" horiz-adv-x="719" 
d="M45 557v27q0 91 54 163t177 144q30 17 86 45q119 63 152 96q31 29 44 60.5t13 72.5q0 85 -52.5 133t-145.5 48q-105 0 -160 -54.5t-57 -160.5h-88q4 136 83.5 210t223.5 74q132 0 209.5 -66.5t77.5 -181.5q0 -54 -18.5 -96t-57.5 -80q-43 -43 -177 -111q-48 -25 -73 -38
q-104 -55 -150.5 -105.5t-52.5 -109.5h522v-70h-610z" />
    <glyph glyph-name="threesuperior" unicode="&#xb3;" horiz-adv-x="719" 
d="M47 803h92q2 -97 56.5 -150t152.5 -53q106 0 162.5 50t56.5 143q0 89 -59 132.5t-180 43.5q-16 0 -24 -0.5t-15 -1.5v65q6 0 17 -1t16 -1q109 0 164 41.5t55 122.5q0 70 -49.5 113t-131.5 43q-93 0 -144 -49t-54 -139h-84q5 120 79 186.5t203 66.5q123 0 196 -60t73 -161
q0 -64 -33 -111.5t-98 -76.5q78 -22 118.5 -77.5t40.5 -140.5q0 -117 -81.5 -186.5t-221.5 -69.5q-143 0 -225 71.5t-82 197.5v2z" />
    <glyph glyph-name="onequarter" unicode="&#xbc;" horiz-adv-x="1716" 
d="M1464 262v422l-311 -422h311zM1464 0v199h-389v63l383 516h90v-516h119v-63h-119v-199h-84zM344 -41l920 1473h104l-919 -1473h-105zM346 612v639q-30 -23 -81.5 -34t-131.5 -11h-12v49h4q113 0 168 38.5t61 119.5h76v-801h-84z" />
    <glyph glyph-name="onehalf" unicode="&#xbd;" horiz-adv-x="1716" 
d="M1071 0v25q0 85 51.5 152t169.5 134q29 16 83 44q111 57 143 87q29 30 42 59t13 66q0 80 -50.5 125t-140.5 45q-98 0 -151.5 -52t-55.5 -148h-81q3 127 79 195.5t213 68.5q126 0 199.5 -62.5t73.5 -169.5q0 -49 -17.5 -88.5t-54.5 -74.5q-41 -40 -168 -104
q-45 -23 -69 -36q-100 -52 -144.5 -99t-50.5 -104h500v-63h-584zM344 -41l920 1473h104l-919 -1473h-105zM346 612v639q-30 -23 -81.5 -34t-131.5 -11h-12v49h4q113 0 168 38.5t61 119.5h76v-801h-84z" />
    <glyph glyph-name="threequarters" unicode="&#xbe;" horiz-adv-x="1714" 
d="M1464 262v422l-311 -422h311zM1464 0v199h-389v63l383 516h90v-516h119v-63h-119v-199h-84zM344 -41l920 1473h104l-919 -1473h-105zM45 842l88 -1q2 -90 54 -139t147 -49q100 0 153.5 46t53.5 132q0 85 -56 125.5t-172 40.5q-16 0 -24.5 -0.5t-13.5 -1.5l-1 60h33
q104 0 156.5 38t52.5 113q0 65 -47 105.5t-125 40.5q-89 0 -138 -45.5t-52 -130.5h-80q5 112 76 174.5t194 62.5q118 0 187 -56t69 -151q0 -59 -31.5 -103.5t-93.5 -72.5q74 -18 114 -70t40 -131q0 -111 -78 -175t-213 -64q-137 0 -215 66.5t-78 183.5v2z" />
    <glyph glyph-name="franc" unicode="&#x20a3;" horiz-adv-x="1792" 
d="M164 0v1473h932v-121h-797v-533h723v-121h-723v-698h-135zM1300 0v1063h119v-186q46 107 127.5 160t200.5 53h14v-129h-16q-159 0 -238.5 -94t-79.5 -281v-586h-127z" />
    <glyph glyph-name="Gbreve" unicode="&#x11e;" horiz-adv-x="1534" 
d="M1290 0l-14 260q-68 -142 -203.5 -221.5t-310.5 -79.5q-307 0 -483.5 209t-176.5 571q0 359 180 565.5t488 206.5q257 0 417.5 -122.5t192.5 -344.5h-139q-31 163 -156 256t-313 93q-255 0 -393.5 -169.5t-138.5 -482.5q0 -303 139 -480t377 -177q243 0 378.5 143
t135.5 402v6h-486v121h615v-756h-109zM494 1925h79q6 -75 53 -110t142 -35q96 0 140.5 34t52.5 111h81q-9 -136 -74.5 -199t-199.5 -63q-132 0 -198.5 63.5t-75.5 198.5z" />
    <glyph glyph-name="gbreve" unicode="&#x11f;" horiz-adv-x="1186" 
d="M217 530q0 -211 95.5 -331.5t262.5 -120.5q171 0 266 119t95 333q0 215 -94.5 333t-266.5 118t-265 -117t-93 -334zM1049 1063v-1008q0 -243 -127.5 -367t-376.5 -124q-186 0 -300.5 83.5t-125.5 227.5h126q11 -97 87.5 -149t210.5 -52q192 0 288.5 95t96.5 282v131
q-65 -106 -157.5 -158.5t-213.5 -52.5q-219 0 -345 149.5t-126 409.5q0 258 127.5 409t343.5 151q123 0 215 -53t154 -158v184h123zM320 1505h79q6 -75 53 -110t142 -35q96 0 140.5 34t52.5 111h81q-9 -136 -74.5 -199t-199.5 -63q-132 0 -198.5 63.5t-75.5 198.5z" />
    <glyph glyph-name="Idotaccent" unicode="&#x130;" horiz-adv-x="485" 
d="M172 0v1473h139v-1473h-139zM168 1692v174h152v-174h-152z" />
    <glyph glyph-name="Scedilla" unicode="&#x15e;" horiz-adv-x="1241" 
d="M94 446h135q2 -174 110 -270t304 -96q172 0 270.5 77.5t98.5 213.5q0 126 -69 192t-275 119l-140 35q-226 58 -312.5 147.5t-86.5 251.5q0 179 131 287t350 108q232 0 362.5 -118t133.5 -330h-137q-3 157 -98 242.5t-267 85.5q-162 0 -251 -73t-89 -206q0 -101 58 -159.5
t192 -92.5l172 -43q255 -64 358 -162t103 -270q0 -198 -135.5 -312t-370.5 -114q-263 0 -405 123.5t-142 353.5v10zM412 -420v78q77 -18 136 -26.5t102 -8.5q64 0 97.5 23t33.5 67q0 54 -35 79.5t-111 25.5q-18 0 -28 -0.5t-18 -1.5l-1 184h66v-111h14q108 0 165.5 -44
t57.5 -128q0 -85 -58 -130.5t-167 -45.5q-58 0 -120.5 9.5t-133.5 29.5z" />
    <glyph glyph-name="scedilla" unicode="&#x15f;" horiz-adv-x="1006" 
d="M92 331h123q5 -110 83.5 -178.5t201.5 -68.5q133 0 209.5 52.5t76.5 142.5q0 129 -283 197q-4 1 -5 1q-228 55 -305.5 121t-77.5 184q0 137 101.5 222.5t264.5 85.5q179 0 285 -89.5t117 -248.5h-125q-8 108 -81 168.5t-198 60.5q-109 0 -174 -50t-65 -132
q0 -142 290 -210q38 -9 57 -13q182 -45 253 -112t71 -188q0 -135 -111.5 -220t-293.5 -85q-185 0 -297 98t-117 262zM295 -420v78q77 -18 136 -26.5t102 -8.5q64 0 97.5 23t33.5 67q0 54 -35 79.5t-111 25.5q-18 0 -28 -0.5t-18 -1.5l-1 184h66v-111h14q108 0 165.5 -44
t57.5 -128q0 -85 -58 -130.5t-167 -45.5q-58 0 -120.5 9.5t-133.5 29.5z" />
    <glyph glyph-name="Cacute" unicode="&#x106;" horiz-adv-x="1425" 
d="M1196 481h133q-17 -245 -172.5 -383.5t-415.5 -138.5q-297 0 -469 208.5t-172 571.5q0 360 173.5 566t471.5 206q250 0 404.5 -127.5t165.5 -341.5h-133q-17 162 -134 255.5t-303 93.5q-239 0 -372 -170.5t-133 -479.5q0 -311 135.5 -487t374.5 -176q195 0 313.5 107
t132.5 296zM737 1620h-92l209 350h152z" />
    <glyph glyph-name="cacute" unicode="&#x107;" horiz-adv-x="1057" 
d="M868 367h123q-17 -183 -135 -288.5t-307 -105.5q-216 0 -340.5 148t-124.5 403q0 264 126.5 415t346.5 151q179 0 294.5 -100.5t124.5 -264.5h-118q-15 116 -97.5 186t-203.5 70q-159 0 -252.5 -120t-93.5 -326q0 -211 94.5 -334t253.5 -123q124 0 207 77t102 212z
M545 1200h-92l209 350h152z" />
    <glyph glyph-name="Ccaron" unicode="&#x10c;" horiz-adv-x="1425" 
d="M1196 481h133q-17 -245 -172.5 -383.5t-415.5 -138.5q-297 0 -469 208.5t-172 571.5q0 360 173.5 566t471.5 206q250 0 404.5 -127.5t165.5 -341.5h-133q-17 162 -134 255.5t-303 93.5q-239 0 -372 -170.5t-133 -479.5q0 -311 135.5 -487t374.5 -176q195 0 313.5 107
t132.5 296zM494 1970h92l184 -264l184 264h92l-200 -350h-152z" />
    <glyph glyph-name="ccaron" unicode="&#x10d;" horiz-adv-x="1057" 
d="M868 367h123q-17 -183 -135 -288.5t-307 -105.5q-216 0 -340.5 148t-124.5 403q0 264 126.5 415t346.5 151q179 0 294.5 -100.5t124.5 -264.5h-118q-15 116 -97.5 186t-203.5 70q-159 0 -252.5 -120t-93.5 -326q0 -211 94.5 -334t253.5 -123q124 0 207 77t102 212z
M302 1550h92l184 -264l184 264h92l-200 -350h-152z" />
    <glyph glyph-name="dcroat" unicode="&#x111;" horiz-adv-x="1190" 
d="M217 530q0 -213 94 -331.5t264 -118.5q174 0 267.5 116.5t93.5 333.5q0 215 -94.5 333t-266.5 118q-171 0 -264.5 -117t-93.5 -334zM1049 1473v-146h141v-94h-141v-1233h-123v180q-61 -104 -155.5 -156.5t-219.5 -52.5q-214 0 -339.5 150.5t-125.5 408.5q0 259 128 409.5
t345 150.5q125 0 217.5 -53t149.5 -158v354h-351v94h351v146h123z" />
    <glyph glyph-name="sfthyphen" unicode="&#xad;" horiz-adv-x="670" 
d="M80 473v129h495v-129h-495z" />
    <glyph glyph-name="periodcentered" unicode="&#x2219;" horiz-adv-x="545" 
d="M190 696q0 35 24 58.5t58 23.5t58 -24t24 -58q0 -33 -24 -57.5t-58 -24.5q-33 0 -57.5 24.5t-24.5 57.5z" />
    </font>
</defs>
</svg>
